<?xml version="1.0" standalone="no"?>
<!DOCTYPE svg PUBLIC "-//W3C//DTD SVG 20010904//EN"
 "http://www.w3.org/TR/2001/REC-SVG-20010904/DTD/svg10.dtd">
<svg version="1.0" xmlns="http://www.w3.org/2000/svg"
 width="1080.000000pt" height="1080.000000pt" viewBox="0 0 1080.000000 1080.000000"
 preserveAspectRatio="xMidYMid meet">

<g transform="translate(0.000000,1080.000000) scale(0.100000,-0.100000)"
fill="#000000" stroke="none">
<path d="M9956 10768 c-9 -59 -17 -894 -17 -1671 0 -604 3 -762 13 -769 7 -4
28 -8 46 -8 29 0 32 -3 32 -31 0 -17 5 -40 11 -51 8 -16 8 -24 -4 -35 -11 -12
-12 -20 -3 -39 12 -25 46 -33 46 -10 0 14 29 26 63 26 9 0 17 -4 17 -10 0 -5
-7 -10 -15 -10 -21 0 -19 -18 3 -23 9 -3 2 -5 -15 -6 -18 0 -33 -5 -33 -11 0
-5 15 -8 33 -6 17 3 38 5 45 5 9 1 10 6 4 17 -15 27 -2 73 22 76 20 3 21 10
28 138 10 197 38 1762 38 2133 l0 317 -155 0 -154 0 -5 -32z"/>
<path d="M10509 10578 c0 -123 -2 -261 -4 -308 -3 -97 -20 -1667 -20 -1925 0
-93 4 -183 9 -200 l9 -30 8 45 c4 25 8 88 8 140 0 52 5 237 11 410 18 553 30
1025 35 1370 3 184 8 422 11 528 l6 192 -36 0 -36 0 -1 -222z"/>
<path d="M10340 10093 c0 -14 19 -38 25 -32 8 8 -5 39 -16 39 -5 0 -9 -3 -9
-7z"/>
<path d="M10317 9845 c2 -74 17 -149 33 -168 4 -5 18 8 30 29 24 37 33 115 23
181 -5 28 -9 31 -46 35 l-42 3 2 -80z"/>
<path d="M10302 9630 c0 -19 2 -27 5 -17 2 9 2 25 0 35 -3 9 -5 1 -5 -18z"/>
<path d="M10282 9625 c0 -16 2 -22 5 -12 2 9 2 23 0 30 -3 6 -5 -1 -5 -18z"/>
<path d="M10340 9566 c0 -12 -6 -28 -12 -35 -11 -11 -9 -13 10 -8 12 3 20 1
16 -4 -3 -5 -2 -14 2 -21 12 -19 31 18 26 51 -5 37 -42 52 -42 17z"/>
<path d="M4400 8143 c0 -46 3 -53 20 -53 25 0 25 7 0 61 l-20 44 0 -52z"/>
<path d="M4358 8167 c-12 -29 -10 -83 3 -70 6 6 9 28 7 49 -2 29 -5 34 -10 21z"/>
<path d="M5948 7973 c-16 -17 -25 -20 -39 -13 -30 16 -36 12 -48 -35 -9 -36
-16 -45 -33 -45 -17 0 -19 3 -10 12 7 7 12 22 12 34 0 12 7 24 15 28 8 3 15
10 15 16 0 6 -13 2 -30 -10 -19 -14 -30 -30 -30 -46 0 -13 -5 -24 -11 -24 -5
0 -9 -10 -7 -22 2 -11 -3 -23 -10 -26 -9 -3 -12 5 -10 24 3 27 1 29 -26 26
-41 -5 -81 -35 -103 -79 -13 -28 -26 -39 -49 -44 -17 -3 -44 -15 -60 -27 -26
-18 -48 -21 -214 -27 -102 -4 -187 -8 -190 -10 -3 -2 -99 -6 -215 -9 -115 -3
-248 -9 -294 -13 -83 -6 -84 -6 -78 16 3 12 -1 27 -9 35 -16 17 -19 40 -4 31
6 -4 10 8 10 29 0 29 -4 36 -19 36 -22 0 -26 4 -35 44 -6 26 -5 28 17 22 33
-8 42 4 16 22 -24 16 -116 39 -140 34 -10 -2 -19 -12 -22 -22 -3 -10 -23 -31
-45 -47 -33 -22 -43 -38 -53 -77 -13 -56 -13 -57 69 -83 65 -21 67 -39 5 -47
-109 -13 -174 -17 -508 -32 -803 -35 -979 -44 -988 -53 -9 -9 -10 -153 -2
-248 3 -40 32 -83 55 -83 6 0 10 -5 10 -11 0 -5 -5 -7 -12 -3 -7 4 -8 3 -4 -4
4 -6 14 -8 23 -5 12 5 15 2 10 -10 -4 -10 -2 -14 7 -11 27 10 113 -131 131
-216 9 -44 -1 -36 -19 16 l-13 39 1 -60 c1 -43 -3 -59 -11 -57 -9 1 -13 -13
-13 -45 0 -58 -8 -72 -43 -79 -25 -4 -27 -2 -27 27 0 57 -22 159 -34 159 -6 0
-25 30 -41 68 -33 77 -55 111 -104 165 -19 20 -32 37 -28 37 7 0 54 -49 97
-100 l21 -25 -20 41 c-17 36 -79 102 -99 105 -4 1 -16 3 -27 5 -22 3 -138 42
-172 57 -53 23 -161 -27 -254 -118 -45 -45 -72 -83 -105 -151 -38 -78 -66
-164 -53 -164 2 0 19 -4 37 -9 27 -8 34 -7 39 7 68 194 193 315 380 367 61 17
62 17 95 -4 45 -28 77 -58 114 -106 55 -71 71 -113 78 -215 5 -67 11 -97 22
-103 19 -11 18 -87 -2 -185 -22 -109 -34 -113 -34 -9 0 47 -5 97 -11 110 -11
25 -46 43 -214 108 -103 40 -139 49 -95 24 29 -17 22 -19 -14 -5 -17 6 -26 6
-26 0 0 -6 5 -10 12 -10 6 0 9 -3 5 -6 -3 -3 13 -20 35 -38 23 -17 41 -34 40
-39 -1 -4 -2 -56 -2 -117 0 -97 -2 -112 -20 -130 -23 -23 -21 -24 15 -10 14 5
23 14 20 20 -3 6 1 7 9 4 9 -3 16 -10 16 -16 0 -5 -5 -6 -12 -2 -7 4 -8 3 -4
-4 9 -15 82 -16 91 -2 3 6 11 10 16 10 6 0 7 -5 4 -10 -4 -7 18 -8 64 -4 39 3
71 2 71 -3 0 -9 -23 -45 -58 -92 -13 -17 -19 -31 -13 -31 5 0 13 5 16 10 3 6
15 10 26 10 10 0 19 6 19 14 0 8 6 14 13 13 45 -1 59 7 95 56 70 94 122 223
122 302 l0 27 113 -6 c61 -3 180 -8 263 -12 l151 -6 7 26 c14 57 -12 55 789
59 405 2 737 0 737 -5 0 -4 -327 -8 -727 -8 -401 0 -738 -3 -749 -6 -47 -12
-46 -4 -35 -810 7 -417 15 -762 19 -766 9 -9 287 -21 512 -22 164 -1 183 2
335 59 103 39 105 39 105 21 0 -9 -8 -16 -20 -16 -17 0 -93 -25 -160 -53 -14
-6 -29 -12 -35 -12 -41 -6 -74 -22 -101 -47 -46 -43 -117 -44 -559 -8 -146 13
-151 12 -190 -8 -66 -35 -106 -75 -114 -112 -6 -29 -13 -36 -42 -45 -55 -16
-82 -38 -111 -92 -49 -89 -64 -283 -22 -283 13 0 14 11 8 69 -12 125 53 271
120 271 31 0 31 0 11 -165 -27 -224 -36 -290 -41 -295 -7 -6 -52 49 -60 73 -7
21 -34 23 -34 1 0 -17 29 -64 66 -104 22 -25 22 -27 9 -114 -7 -48 -18 -93
-23 -98 -5 -5 -76 -12 -158 -14 l-149 -5 35 22 c49 31 23 35 -55 9 -51 -17
-66 -27 -71 -45 -7 -27 1 -45 19 -44 9 0 9 2 0 6 -7 2 -13 9 -13 15 0 6 34 9
93 7 50 -2 97 -1 102 3 6 3 53 7 105 9 90 4 95 3 92 -16 -2 -11 -6 -50 -10
-87 -4 -37 -11 -70 -14 -73 -9 -9 -151 12 -215 32 -29 9 -53 21 -53 28 0 17
-81 40 -90 25 -4 -6 -20 -10 -35 -8 -17 2 -30 -2 -33 -11 -3 -8 0 -11 7 -7 6
4 11 3 11 -3 0 -5 -15 -9 -32 -8 -30 2 -34 -1 -46 -39 -8 -26 -23 -46 -43 -58
-39 -23 -34 -27 21 -15 50 11 73 26 63 42 -4 7 7 8 33 3 43 -8 42 -8 96 -1 21
2 94 -8 165 -24 119 -25 128 -29 132 -52 4 -28 -17 -181 -31 -224 -5 -16 -13
-56 -18 -89 -5 -32 -11 -61 -15 -64 -5 -6 -234 14 -450 38 -44 5 -129 14 -190
20 -523 52 -519 52 -533 72 -7 10 -20 18 -27 18 -20 0 -40 33 -65 110 -18 53
-48 217 -50 268 0 8 16 12 46 12 38 0 45 3 42 17 -2 14 -11 17 -40 15 -20 -2
-38 0 -41 5 -3 4 11 9 31 11 42 3 55 13 50 38 -2 13 -14 21 -38 24 l-35 5 38
24 38 23 -2 180 c-1 98 -6 181 -10 184 -4 2 -23 -5 -41 -16 -18 -11 -37 -20
-42 -20 -18 0 14 26 49 40 34 13 49 40 21 40 -19 0 -39 27 -31 40 5 8 13 6 25
-5 22 -20 30 -9 28 39 -1 23 -6 36 -15 36 -15 0 -17 16 -3 25 5 3 10 21 10 38
0 45 82 356 137 522 26 77 56 181 68 230 14 59 26 89 34 87 7 -1 22 8 33 20
14 16 22 19 25 10 3 -6 9 -10 14 -6 5 3 9 -13 9 -34 0 -32 8 -48 39 -83 35
-40 43 -44 86 -44 40 0 51 5 75 32 39 43 54 122 45 232 -4 47 -14 95 -22 107
-9 15 -11 24 -3 29 5 3 14 -4 19 -17 8 -20 10 -21 16 -5 4 9 5 24 1 32 -9 26
4 42 65 81 32 21 59 41 59 44 0 4 9 17 20 30 11 13 20 30 20 40 0 26 21 40 62
40 61 0 165 63 136 82 -17 10 -102 10 -113 -1 -17 -15 -75 -31 -75 -20 0 5 -8
19 -19 30 -16 17 -19 18 -24 5 -11 -28 -31 -17 -115 65 -76 74 -82 84 -83 122
-1 23 -4 106 -8 185 -5 110 -3 142 7 142 6 0 12 8 11 18 0 9 -3 12 -5 5 -3 -7
-11 -10 -19 -7 -21 8 -25 -37 -17 -209 6 -144 4 -174 -13 -147 -3 5 -16 15
-28 21 -14 7 -9 -2 14 -23 45 -41 72 -76 49 -63 -28 16 -126 93 -139 109 -13
15 -11 16 13 7 14 -6 26 -9 26 -7 0 5 -147 103 -161 108 -5 2 4 28 20 58 17
30 31 60 31 67 0 18 -111 47 -131 35 -14 -9 -18 -7 -23 11 -4 16 -8 19 -14 9
-7 -10 -12 -10 -22 3 -12 15 -15 14 -26 -7 -14 -25 -18 -107 -6 -123 4 -6 20
-16 35 -23 26 -11 27 -14 13 -28 -18 -18 -21 -34 -6 -34 16 0 11 -17 -7 -24
-23 -9 -42 12 -23 25 13 9 12 10 -3 5 -16 -5 -22 5 -18 28 3 13 -61 180 -74
194 -10 11 -20 10 -54 -7 -22 -12 -41 -24 -41 -27 0 -17 117 -184 132 -187 38
-10 30 -100 -19 -219 -9 -20 -21 -63 -28 -95 -7 -32 -13 -48 -14 -35 -1 31
-19 28 -31 -5 -6 -16 -14 -35 -19 -44 -12 -20 0 -112 21 -159 8 -19 25 -44 37
-54 l21 -19 2 59 c0 32 0 66 0 74 -3 29 19 185 29 212 11 27 18 31 75 43 44 9
66 -20 67 -87 1 -30 -2 -59 -6 -65 -4 -6 -9 -27 -11 -46 -3 -20 -10 -55 -17
-79 -16 -60 -13 -162 7 -222 27 -80 38 -106 46 -106 12 0 10 -81 -3 -142 -6
-29 -35 -129 -64 -223 -29 -93 -66 -216 -81 -272 -15 -57 -29 -102 -30 -100
-2 2 -4 30 -5 64 l-2 61 -42 -18 c-24 -10 -80 -38 -126 -62 -104 -54 -142 -71
-135 -59 4 5 0 11 -6 14 -9 3 -4 14 14 33 44 48 51 173 10 175 -14 0 -14 2 3
9 19 8 18 9 -4 9 -29 1 -19 16 12 17 12 1 51 6 87 13 36 6 93 11 128 11 l62 0
0 40 c0 45 8 41 -132 59 -86 11 -205 44 -221 60 -8 8 83 41 112 41 8 0 9 6 4
18 -9 19 -8 91 2 139 9 41 -1 71 -17 55 -25 -25 -41 -14 -34 22 5 23 3 36 -6
39 -10 4 -10 6 0 6 17 1 15 28 -3 35 -10 3 -15 20 -15 48 0 27 -8 52 -20 68
-11 14 -20 36 -20 49 0 22 -2 23 -17 9 -18 -15 -53 -14 -53 2 0 5 7 13 14 17
13 7 13 13 -1 41 -14 29 -14 35 -2 42 11 7 11 17 3 47 -12 45 0 102 21 104 31
3 65 18 65 29 0 5 -27 22 -59 38 -59 30 -60 30 -64 8 -5 -29 -14 73 -27 304
-6 107 -15 269 -21 360 -6 91 -13 239 -17 330 -6 131 -10 164 -21 162 -7 -1
-18 1 -25 6 -6 5 -121 12 -256 16 -135 3 -425 13 -645 21 -220 8 -417 15 -438
15 l-38 0 2 -125 c2 -124 2 -125 25 -125 13 0 24 -5 24 -10 0 -6 -11 -8 -25
-4 -14 3 -25 2 -25 -4 0 -13 40 -23 68 -15 13 3 22 1 22 -6 0 -11 -14 -15 -35
-11 -5 1 -5 -4 2 -11 13 -14 67 -4 58 11 -3 6 4 10 17 9 13 0 17 -3 10 -6 -34
-14 10 -23 110 -23 l111 0 -6 -36 c-4 -25 -2 -37 9 -41 17 -6 19 -23 1 -23 -9
0 -11 -12 -9 -41 l4 -41 -128 6 c-71 4 -153 9 -181 12 -36 4 -53 3 -53 -5 0
-6 12 -11 28 -12 57 -1 167 -10 171 -15 2 -2 -41 -4 -97 -4 -61 0 -102 -4
-102 -10 0 -8 144 -16 201 -11 8 1 26 -3 40 -8 17 -7 -12 -10 -108 -10 l-133
-1 0 -80 0 -80 33 -1 c17 0 60 -1 94 -1 35 0 66 -4 69 -10 4 -6 -28 -9 -95 -6
-55 1 -101 0 -101 -3 0 -10 58 -19 127 -19 39 0 62 -4 58 -10 -3 -5 -44 -8
-95 -6 l-90 4 0 -64 0 -64 30 0 c17 0 30 -4 30 -10 0 -5 -7 -10 -15 -10 -8 0
-15 -5 -15 -11 0 -5 12 -9 28 -8 52 4 83 -1 77 -12 -4 -6 -32 -9 -71 -6 -35 2
-64 0 -64 -5 0 -4 12 -8 28 -9 78 -2 97 -5 97 -14 0 -6 -26 -8 -62 -6 -62 3
-63 2 -63 -23 0 -24 3 -26 43 -26 61 0 117 -11 117 -23 0 -6 -30 -8 -80 -5
l-80 5 0 -297 0 -297 36 -1 c52 -2 56 -12 5 -12 l-42 0 3 -97 c2 -79 6 -98 18
-99 8 -1 20 -2 25 -3 12 -3 76 -6 183 -9 50 -1 82 -6 82 -13 0 -10 -232 -5
-288 7 -12 2 -22 0 -22 -6 0 -5 13 -10 30 -10 17 0 30 -4 30 -10 0 -5 -13 -10
-30 -10 -17 0 -30 -4 -30 -10 0 -6 34 -11 78 -12 98 -1 99 -2 109 -12 4 -4
-36 -6 -89 -4 -87 3 -98 2 -98 -13 0 -15 17 -18 128 -23 70 -4 188 -12 262
-17 96 -8 135 -8 138 0 2 6 11 11 20 11 15 0 15 -2 2 -11 -12 -9 -11 -9 5 -4
11 4 29 9 40 11 19 4 19 4 0 -4 -16 -8 -14 -10 15 -16 21 -4 36 -2 38 4 2 5
22 10 43 10 27 0 38 -4 33 -11 -5 -8 10 -9 54 -4 39 4 62 3 66 -4 4 -6 14 -11
22 -11 8 0 13 4 9 9 -3 5 -1 12 4 16 5 3 14 -2 19 -11 7 -13 15 -15 38 -8 16
5 56 7 89 3 33 -4 93 -7 133 -8 39 -1 72 -5 72 -10 0 -5 13 -11 29 -13 17 -2
28 -1 25 4 -3 4 9 8 25 8 17 0 31 -4 31 -10 0 -5 9 -10 20 -10 11 0 20 7 20
15 0 8 5 15 10 15 6 0 10 -6 10 -14 0 -8 7 -16 15 -20 10 -4 15 -20 15 -53 l0
-48 -107 7 c-60 4 -187 12 -283 18 -96 5 -364 21 -594 35 -231 14 -425 25
-433 25 -11 0 -13 -77 -13 -421 0 -395 1 -420 18 -416 9 3 71 17 137 32 66 15
146 33 178 41 57 14 59 14 77 -8 22 -26 25 -38 10 -38 -5 0 -10 -9 -10 -19 0
-26 -21 -32 -118 -37 -46 -2 -88 -6 -93 -9 -5 -3 11 -34 36 -68 24 -34 59 -83
77 -109 18 -26 36 -47 41 -48 4 0 12 -11 17 -24 7 -19 14 -22 36 -18 19 3 25
1 20 -7 -4 -6 -14 -11 -22 -11 -20 0 -19 -3 23 -66 l37 -56 61 5 c33 3 126 20
208 38 141 31 148 34 166 64 16 28 28 34 91 49 91 20 88 21 82 -9 -5 -28 19
-98 46 -133 16 -20 76 -41 167 -56 11 -2 19 -9 18 -15 -2 -6 4 -11 12 -11 7 0
18 -6 22 -13 4 -8 20 -22 35 -31 15 -10 30 -26 33 -37 4 -10 15 -19 26 -19 11
0 17 5 14 10 -12 20 223 107 313 116 l58 6 22 -123 c13 -68 30 -152 38 -186
22 -98 21 -104 -23 -98 -44 6 -376 40 -543 55 -63 6 -149 15 -190 20 -179 22
-411 42 -417 36 -18 -18 28 -36 102 -41 44 -3 96 -9 115 -12 19 -4 71 -8 115
-9 92 -3 219 -11 285 -19 25 -4 81 -9 125 -12 63 -4 85 -10 104 -26 l23 -22
-7 23 c-6 22 -5 23 42 17 58 -6 252 -25 264 -25 5 0 9 -6 9 -14 0 -12 30 -73
47 -95 1 -2 18 8 37 23 46 35 57 33 81 -11 l20 -38 -39 -20 c-33 -17 -50 -36
-31 -35 11 1 33 -25 28 -32 -2 -5 1 -8 6 -8 6 0 10 -3 10 -7 -1 -5 -1 -15 0
-23 1 -12 5 -11 16 4 8 10 12 23 9 28 -4 5 3 4 15 -3 14 -10 17 -15 8 -21 -7
-4 -8 -8 -3 -8 5 0 4 -6 -2 -13 -6 -7 -13 -24 -15 -37 -3 -14 -15 -65 -28
-115 -18 -71 -23 -119 -23 -225 -1 -205 14 -1014 20 -1111 6 -81 5 -86 -15
-92 -11 -3 -24 0 -29 7 -9 11 -33 769 -32 1041 0 181 1 165 -21 277 -38 192
-117 367 -199 442 -39 35 -105 56 -179 56 -45 0 -769 78 -793 86 -10 3 -18 0
-18 -6 0 -9 62 -101 174 -255 20 -27 76 -104 123 -170 48 -66 111 -155 142
-197 116 -159 271 -386 271 -396 0 -17 -28 -22 -168 -34 l-134 -12 -33 37
c-20 23 -35 32 -37 25 -4 -10 -9 -8 -21 4 -19 18 -22 44 -8 53 6 3 -4 29 -22
57 -21 34 -33 46 -35 35 -6 -32 -21 -17 -16 16 4 25 -2 43 -28 82 -18 28 -59
91 -90 141 -32 50 -67 101 -79 115 -34 38 -89 128 -89 144 0 8 -4 15 -8 15 -5
0 -19 19 -32 43 -13 23 -41 59 -62 79 -21 21 -38 42 -38 48 0 23 -31 70 -42
64 -7 -4 -8 -3 -4 5 9 14 -103 190 -121 191 -7 0 -13 6 -13 13 0 8 -15 13 -42
14 -24 0 -50 2 -58 4 -10 3 -15 -4 -16 -21 -1 -14 -3 -29 -4 -35 -5 -23 1 -35
20 -35 19 0 19 -1 -2 -35 -19 -33 -19 -37 -4 -54 9 -10 16 -32 16 -50 0 -19 6
-34 15 -37 8 -4 15 -12 15 -20 0 -7 9 -28 20 -46 11 -18 20 -43 20 -55 0 -13
4 -23 8 -23 4 0 15 -12 24 -27 35 -60 76 -91 95 -72 6 6 20 -6 39 -30 16 -22
32 -37 36 -35 3 2 9 -5 13 -16 3 -11 15 -20 26 -20 16 0 69 -65 69 -86 0 -14
30 -33 43 -28 9 3 25 -8 43 -31 15 -20 33 -34 40 -31 8 3 27 -14 46 -40 20
-29 37 -43 46 -39 13 5 72 -48 72 -65 0 -4 -11 -13 -25 -20 -29 -16 -33 -30
-6 -23 26 7 36 -26 14 -43 -24 -18 -31 -17 -45 5 -12 20 -37 17 -51 -6 -12
-19 -26 -7 -20 17 5 18 -4 25 -29 21 -4 0 -16 11 -28 26 -11 14 -23 23 -27 20
-3 -4 2 -17 13 -29 18 -20 18 -21 1 -15 -10 4 -21 7 -23 7 -3 0 -9 11 -14 25
-5 14 -14 25 -20 25 -7 0 -7 -7 0 -21 16 -29 2 -38 -20 -12 -9 12 -20 19 -24
16 -3 -4 4 -17 16 -30 16 -17 24 -20 35 -12 17 15 16 -1 -2 -25 -7 -10 -19
-15 -25 -11 -12 7 -40 -11 -40 -27 0 -5 9 -6 20 -3 20 6 28 -9 11 -19 -5 -3
-7 -16 -3 -29 4 -18 1 -16 -23 12 -24 28 -27 36 -17 52 10 15 7 26 -16 64 -26
43 -42 57 -42 35 0 -5 3 -10 8 -10 4 0 13 -14 21 -31 17 -39 2 -61 -29 -41
-12 7 -20 8 -20 2 0 -15 -21 -12 -42 7 -25 22 -36 8 -13 -18 13 -14 26 -18 42
-14 16 4 23 1 23 -9 0 -18 -50 -17 -65 1 -14 17 -47 20 -52 6 -3 -7 2 -13 11
-13 9 0 16 -4 16 -10 0 -5 -7 -10 -15 -10 -8 0 -15 5 -15 10 0 6 -7 10 -15 10
-18 0 -18 8 0 40 17 30 18 40 5 40 -5 0 -10 -7 -10 -15 0 -18 -20 -20 -20 -2
-1 16 -40 -32 -40 -49 0 -8 5 -14 10 -14 6 0 10 -7 10 -15 0 -12 -5 -11 -30 3
-29 17 -43 62 -19 62 6 0 4 7 -5 15 -8 8 -22 15 -30 15 -12 0 -16 10 -16 40 0
30 -4 40 -16 40 -13 0 -15 -7 -10 -35 10 -54 -5 -72 -69 -80 -54 -6 -77 -25
-31 -25 14 0 30 -10 39 -23 14 -21 13 -25 -14 -50 -25 -23 -30 -25 -36 -11 -3
9 0 20 7 24 20 13 3 40 -25 40 -16 0 -25 -6 -25 -16 0 -9 -9 -25 -21 -35 -16
-14 -20 -27 -17 -61 3 -37 0 -43 -16 -43 -15 0 -20 -7 -20 -27 0 -14 5 -32 11
-40 6 -7 14 -23 17 -35 7 -23 1 -27 -36 -24 -16 2 -18 -9 -18 -118 0 -105 2
-120 17 -124 17 -4 17 -5 1 -6 -15 -1 -18 -11 -18 -61 0 -48 3 -58 15 -54 9 4
18 -1 22 -11 7 -20 -10 -51 -26 -48 -7 2 -11 -320 -11 -1087 l0 -1090 872 0
c479 0 869 2 867 4 -2 2 -100 27 -218 57 -195 48 -241 65 -241 89 0 11 85 60
104 60 9 0 13 6 10 14 -3 9 6 15 33 19 21 3 68 11 105 17 56 9 81 9 144 -4 42
-9 79 -16 83 -16 13 1 -56 29 -113 47 -33 10 -61 24 -62 31 -1 7 0 8 2 3 3 -6
11 -8 18 -5 7 3 26 -2 42 -11 16 -8 35 -15 42 -15 18 0 115 -34 202 -70 81
-34 131 -50 255 -80 44 -10 112 -29 150 -40 39 -12 137 -39 218 -61 l149 -39
1129 0 1129 0 16 25 c11 17 26 25 44 25 15 0 40 4 56 9 16 5 42 12 57 16 28 6
28 7 13 30 -9 13 -16 31 -16 40 0 21 20 19 21 -2 1 -43 15 22 14 68 -1 55 6
61 60 49 42 -9 85 2 85 22 -1 30 -18 41 -58 36 -38 -6 -40 -4 -56 34 -14 31
-15 42 -5 54 10 12 7 20 -16 44 -34 36 -41 37 -48 9 -5 -20 -10 -21 -63 -15
-67 8 -71 10 -55 30 7 8 10 20 6 26 -8 13 -71 13 -97 -1 -24 -13 -24 -12 -34
25 l-7 28 41 -7 c23 -3 49 -2 58 3 12 7 23 6 34 -1 20 -12 74 -1 64 14 -4 6
12 9 44 8 57 -3 153 36 149 60 -1 8 9 21 23 28 14 7 25 18 25 25 0 21 55 21
84 0 49 -36 73 -45 81 -32 5 9 9 9 14 1 4 -6 2 -11 -3 -11 -6 0 -11 -11 -11
-25 0 -31 21 -32 80 -4 34 17 48 19 62 10 25 -15 58 -14 58 3 0 17 22 26 66
26 42 0 53 -20 30 -55 -20 -31 -20 -35 3 -35 10 0 21 -7 25 -15 3 -8 13 -15
23 -15 10 0 34 -11 53 -24 44 -29 80 -41 80 -26 0 13 43 3 48 -11 2 -5 17 -9
32 -9 19 0 33 -7 40 -20 12 -22 1 -27 -18 -8 -17 17 -24 5 -16 -26 4 -17 24
-39 55 -59 27 -17 51 -39 54 -47 3 -8 25 -35 50 -60 26 -26 44 -55 45 -68 0
-13 -4 -20 -10 -17 -9 6 -15 -34 -12 -80 2 -15 0 -16 -7 -7 -4 8 -12 14 -17
15 -9 2 -10 6 -13 34 -2 18 -69 83 -86 83 -8 0 -15 5 -15 10 0 6 -13 10 -29
10 -17 0 -33 5 -36 10 -3 6 -16 10 -29 10 -12 0 -28 6 -35 13 -11 9 -14 9 -18
0 -8 -23 -23 -14 -23 15 0 32 -9 46 -34 55 -20 8 -45 -16 -46 -43 0 -19 53
-70 74 -70 22 0 20 -23 -4 -38 -32 -20 -26 -68 14 -113 21 -22 37 -33 40 -26
2 7 8 2 11 -10 7 -21 14 -23 71 -23 36 0 64 4 64 10 0 6 7 10 16 10 8 0 12 -5
9 -10 -3 -5 4 -10 15 -10 16 0 20 5 16 15 -3 8 -1 15 5 15 5 0 12 -7 15 -15 6
-15 54 -22 54 -7 0 45 64 339 76 350 4 4 5 0 1 -9 -3 -9 -9 -54 -12 -100 -4
-46 -10 -88 -13 -94 -4 -5 -5 -20 -3 -32 1 -13 -2 -23 -8 -23 -6 0 -11 -21
-11 -50 l0 -50 2285 0 2285 0 0 509 0 508 -88 12 c-112 14 -135 14 -150 -1 -9
-9 -12 -8 -12 6 0 13 -5 16 -16 12 -9 -4 -22 -2 -28 2 -18 15 -66 23 -66 12 0
-13 -57 -13 -65 0 -3 5 -19 10 -34 10 -15 0 -32 5 -39 12 -9 9 -18 8 -38 -3
-21 -11 -28 -11 -31 -1 -3 8 -29 12 -81 12 -51 0 -94 6 -127 19 -33 12 -71 18
-112 16 -35 -1 -63 1 -63 6 0 4 -15 7 -34 7 -36 0 -105 19 -120 32 -5 5 -19 4
-31 -2 -17 -7 -33 -7 -56 1 -17 6 -45 11 -60 11 -16 0 -29 3 -29 8 0 4 -24 8
-53 10 -79 4 -87 6 -85 17 1 6 -11 13 -28 17 -16 4 14 4 66 1 98 -5 241 -22
390 -48 156 -26 344 -54 405 -60 33 -3 80 -10 105 -16 45 -9 139 -21 325 -39
55 -6 112 -13 128 -16 l27 -6 0 834 0 833 -48 32 c-63 41 -98 51 -217 58 -101
5 -153 10 -410 39 -77 9 -228 25 -335 36 -293 32 -783 90 -799 96 -11 3 -11 8
-3 16 11 11 282 -3 427 -23 39 -5 125 -14 193 -19 67 -5 141 -13 164 -16 30
-5 39 -4 34 4 -4 7 -1 12 8 12 9 0 16 -3 16 -7 0 -5 28 -9 63 -10 34 0 136 -9
227 -18 91 -10 217 -22 280 -29 97 -9 115 -14 118 -29 4 -21 27 -18 27 4 0 8
9 13 20 12 120 -11 238 -13 225 -4 -8 6 -39 11 -68 11 -29 0 -83 4 -120 10
-37 5 -146 16 -242 25 -96 10 -254 26 -350 36 -204 22 -294 32 -520 54 -215
21 -493 55 -499 60 -2 3 14 5 37 5 23 0 42 5 42 10 0 6 -7 10 -15 10 -19 0
-40 49 -26 63 5 5 4 19 -5 35 -12 24 -12 28 2 39 13 9 7 13 -33 18 -26 3 -75
10 -108 15 -33 5 -170 21 -305 35 -135 14 -260 28 -279 31 l-34 5 7 114 c7
125 24 227 55 349 12 44 21 94 21 112 0 39 9 64 22 64 5 0 25 -12 45 -27 32
-24 36 -25 45 -10 13 25 28 21 28 -8 0 -19 -7 -27 -32 -35 l-33 -10 34 5 33 5
-8 -38 c-4 -20 -8 -55 -9 -78 -1 -22 -12 -59 -25 -81 -24 -44 -24 -53 6 -137
17 -49 17 -49 -5 -67 -29 -24 -22 -34 36 -49 63 -16 344 -14 398 3 43 14 185
103 185 116 0 18 -29 19 -57 1 -36 -21 -55 -13 -59 27 -5 48 71 94 103 62 7
-7 20 -8 30 -4 20 8 254 6 483 -4 136 -6 145 -7 146 -26 4 -54 7 -56 16 -10 5
27 14 55 20 62 6 7 6 13 1 13 -13 0 -8 153 6 158 6 2 11 28 11 62 0 72 13 112
35 104 12 -5 15 2 15 38 0 24 -6 50 -12 56 -10 10 -10 15 2 22 13 8 15 74 16
472 1 254 0 468 -3 475 -3 7 -16 13 -29 13 l-23 0 -4 -342 c-3 -295 -7 -419
-17 -488 -1 -8 -6 -1 -11 15 -5 17 -8 207 -7 438 3 403 3 408 23 401 11 -4 38
-8 60 -10 22 -1 42 -3 44 -3 2 -1 -1 -7 -7 -14 -8 -9 -9 -37 -2 -93 9 -78 17
-1033 11 -1296 -3 -129 -2 -138 15 -138 18 0 19 15 19 293 0 160 -4 507 -9
769 l-8 478 128 0 c71 0 152 1 179 4 62 4 115 30 115 55 0 17 -4 18 -87 4 -49
-8 -142 -16 -208 -16 l-120 -2 -11 140 c-12 161 -11 155 -24 135 -5 -8 -10
-73 -10 -145 0 -96 -3 -125 -11 -112 -6 10 -13 44 -16 75 -8 83 -22 99 -24 27
-1 -33 0 -70 1 -82 1 -17 -4 -23 -19 -23 -24 0 -24 8 -24 230 1 186 22 215
170 237 54 8 98 15 99 16 4 6 14 484 14 690 l0 248 102 -2 102 -2 13 39 c7 22
16 46 20 54 3 8 7 17 8 20 1 3 5 14 9 25 5 11 14 36 21 55 11 30 21 38 71 57
33 12 75 22 94 23 19 0 56 2 81 3 l46 3 7 -145 c3 -79 7 -145 9 -147 1 -1 44
-5 95 -8 l92 -8 0 458 0 457 -96 -6 c-52 -4 -100 -9 -105 -13 -6 -3 -9 -43 -8
-93 2 -48 -1 -92 -5 -99 -4 -7 -24 -12 -44 -12 -20 0 -67 -3 -104 -7 -60 -5
-68 -8 -68 -27 0 -19 -5 -21 -60 -20 -75 2 -116 18 -124 50 -6 24 -24 30 -71
25 -41 -4 -62 8 -68 38 -13 63 52 58 -1072 81 -269 6 -764 17 -1100 25 -335 8
-656 16 -712 18 -97 2 -104 4 -127 28 -13 14 -34 47 -45 72 -15 32 -33 54 -61
69 -21 13 -44 33 -50 46 -5 13 -15 20 -20 17 -6 -3 -7 1 -4 10 4 9 0 23 -8 33
-8 9 -27 43 -42 74 -30 61 -48 72 -131 82 -28 4 -45 0 -57 -11 -21 -19 -36
-10 -19 10 6 8 9 21 7 28 -2 8 -7 26 -10 42 -4 15 -10 27 -14 27 -5 0 -22 -20
-40 -45 -17 -25 -38 -45 -46 -45 -7 0 -19 -7 -26 -15 -7 -8 -19 -15 -27 -15
-11 0 -13 3 -5 13 7 9 4 20 -13 40 -22 24 -31 27 -92 27 -37 1 -86 8 -108 16
-22 9 -53 17 -68 18 -15 2 -33 8 -39 14 -7 7 -22 12 -34 12 -13 0 -29 9 -37
20 -18 26 -71 22 -99 -7z m-1508 -115 c0 -40 -15 -51 -29 -24 -15 26 -8 46 15
46 8 0 14 -10 14 -22z m1471 -11 c-10 -9 -11 -8 -5 6 3 10 9 15 12 12 3 -3 0
-11 -7 -18z m-167 -2 c-4 -8 -10 -15 -15 -15 -4 0 -6 7 -3 15 4 8 10 15 15 15
4 0 6 -7 3 -15z m-75 -27 c-8 -14 -14 -18 -17 -10 -4 13 17 46 25 38 3 -2 -1
-15 -8 -28z m991 8 c0 -2 -7 -6 -15 -10 -8 -3 -15 -1 -15 4 0 6 7 10 15 10 8
0 15 -2 15 -4z m-2150 -16 c0 -5 -4 -10 -10 -10 -5 0 -10 5 -10 10 0 6 5 10
10 10 6 0 10 -4 10 -10z m-64 -37 c-10 -10 -19 5 -10 18 6 11 8 11 12 0 2 -7
1 -15 -2 -18z m1858 8 c-5 -5 -19 -12 -31 -16 -18 -5 -22 -3 -17 9 3 8 15 16
27 18 27 5 34 1 21 -11z m76 9 c0 -5 -2 -10 -4 -10 -2 0 -12 -3 -20 -6 -12 -5
-15 -2 -10 10 7 17 34 22 34 6z m35 -10 c-3 -5 -11 -10 -16 -10 -6 0 -7 5 -4
10 3 6 11 10 16 10 6 0 7 -4 4 -10z m370 -40 c-3 -5 -11 -10 -16 -10 -6 0 -7
5 -4 10 3 6 11 10 16 10 6 0 7 -4 4 -10z m-2350 -50 c3 -5 -3 -10 -14 -10 -12
0 -21 5 -21 10 0 6 6 10 14 10 8 0 18 -4 21 -10z m2235 -78 c0 -4 -9 -8 -20
-9 -11 -1 -18 2 -15 8 7 11 35 12 35 1z m-1312 -41 c3 -8 -1 -12 -9 -9 -7 2
-15 10 -17 17 -3 8 1 12 9 9 7 -2 15 -10 17 -17z m1562 -31 c0 -5 -10 -15 -22
-21 -23 -12 -23 -12 -4 10 21 23 26 26 26 11z m30 0 c0 -5 -2 -10 -4 -10 -3 0
-8 5 -11 10 -3 6 -1 10 4 10 6 0 11 -4 11 -10z m-6660 -30 c0 -5 -4 -10 -10
-10 -5 0 -10 5 -10 10 0 6 5 10 10 10 6 0 10 -4 10 -10z m674 -31 c-3 -5 -10
-7 -15 -3 -5 3 -7 10 -3 15 3 5 10 7 15 3 5 -3 7 -10 3 -15z m44 3 c2 -7 -3
-12 -12 -12 -9 0 -16 7 -16 16 0 17 22 14 28 -4z m92 -4 c0 -16 -3 -19 -11
-11 -6 6 -8 16 -5 22 11 17 16 13 16 -11z m-45 2 c3 -5 -1 -10 -9 -10 -9 0
-16 5 -16 10 0 6 4 10 9 10 6 0 13 -4 16 -10z m-1020 -30 c3 -5 -1 -10 -10
-10 -9 0 -13 5 -10 10 3 6 8 10 10 10 2 0 7 -4 10 -10z m35 0 c0 -5 -4 -10
-10 -10 -5 0 -10 5 -10 10 0 6 5 10 10 10 6 0 10 -4 10 -10z m167 -12 c-3 -8
-6 -5 -6 6 -1 11 2 17 5 13 3 -3 4 -12 1 -19z m53 2 c0 -5 -4 -10 -10 -10 -5
0 -10 5 -10 10 0 6 5 10 10 10 6 0 10 -4 10 -10z m40 0 c0 -5 -4 -10 -10 -10
-5 0 -10 5 -10 10 0 6 5 10 10 10 6 0 10 -4 10 -10z m150 -4 c0 -9 -30 -14
-35 -6 -4 6 3 10 14 10 12 0 21 -2 21 -4z m640 -26 c0 -5 -4 -10 -10 -10 -5 0
-10 5 -10 10 0 6 5 10 10 10 6 0 10 -4 10 -10z m50 2 c0 -13 -12 -22 -22 -16
-10 6 -1 24 13 24 5 0 9 -4 9 -8z m-920 -32 c0 -5 -4 -10 -10 -10 -5 0 -10 5
-10 10 0 6 5 10 10 10 6 0 10 -4 10 -10z m150 -17 c-1 -27 -1 -27 -15 -9 -19
25 -19 36 0 36 10 0 15 -10 15 -27z m478 11 c92 -8 76 -22 -20 -18 -46 2 -149
7 -230 10 -82 3 -145 10 -143 15 6 8 268 4 393 -7z m6362 -43 c0 -3 -20 -5
-45 -3 -25 2 -45 7 -45 11 0 3 20 5 45 3 25 -2 45 -7 45 -11z m-7128 -3 c-8
-8 -17 -8 -34 0 -22 10 -21 11 12 11 26 1 31 -2 22 -11z m103 2 c4 -6 -12 -10
-39 -10 -25 0 -46 5 -46 10 0 6 18 10 39 10 22 0 43 -4 46 -10z m7115 0 c0
-13 -20 -13 -40 0 -12 8 -9 10 13 10 15 0 27 -4 27 -10z m-7042 -7 c-10 -2
-26 -2 -35 0 -10 3 -2 5 17 5 19 0 27 -2 18 -5z m72 -3 c0 -5 -4 -10 -9 -10
-6 0 -13 5 -16 10 -3 6 1 10 9 10 9 0 16 -4 16 -10z m517 -6 c57 -3 101 -10
98 -14 -3 -4 -31 -6 -62 -4 -128 8 -254 13 -360 14 -70 0 -113 4 -113 10 0 10
190 7 437 -6z m2573 -5 c-11 -7 5 -8 55 -5 39 3 90 5 115 4 25 0 63 -1 85 -2
53 -1 64 -18 71 -110 7 -73 6 -75 -17 -80 -13 -3 -121 -5 -239 -3 l-215 2 -1
25 c-1 14 -4 51 -8 82 -6 50 -5 58 13 67 11 6 38 11 60 11 23 0 41 5 41 10 0
6 12 10 28 10 21 0 24 -2 12 -11z m87 5 c-3 -3 -12 -4 -19 -1 -8 3 -5 6 6 6
11 1 17 -2 13 -5z m-3292 -24 c4 -7 -3 -8 -22 -4 -38 9 -42 14 -10 14 14 0 29
-5 32 -10z m8705 0 c0 -5 -2 -10 -4 -10 -3 0 -8 5 -11 10 -3 6 -1 10 4 10 6 0
11 -4 11 -10z m330 -10 c0 -5 -7 -10 -15 -10 -8 0 -15 5 -15 10 0 6 7 10 15
10 8 0 15 -4 15 -10z m140 0 c0 -5 -7 -10 -15 -10 -8 0 -15 5 -15 10 0 6 7 10
15 10 8 0 15 -4 15 -10z m160 0 c0 -5 -5 -10 -11 -10 -5 0 -7 5 -4 10 3 6 8
10 11 10 2 0 4 -4 4 -10z m80 0 c0 -5 -5 -10 -11 -10 -5 0 -7 5 -4 10 3 6 8
10 11 10 2 0 4 -4 4 -10z m-1667 -37 c-13 -2 -33 -2 -45 0 -13 2 -3 4 22 4 25
0 35 -2 23 -4z m97 -3 c0 -5 -9 -10 -21 -10 -11 0 -17 5 -14 10 3 6 13 10 21
10 8 0 14 -4 14 -10z m552 -15 c0 -5 -5 -11 -11 -13 -6 -2 -11 4 -11 13 0 9 5
15 11 13 6 -2 11 -8 11 -13z m-7664 -42 c78 -3 142 -10 142 -15 0 -5 -34 -6
-77 -3 -43 3 -194 10 -336 15 -143 5 -262 12 -265 16 -7 6 232 1 536 -13z
m3412 -33 c0 -5 -5 -10 -11 -10 -5 0 -7 5 -4 10 3 6 8 10 11 10 2 0 4 -4 4
-10z m5250 -30 c0 -5 -4 -10 -10 -10 -5 0 -10 5 -10 10 0 6 5 10 10 10 6 0 10
-4 10 -10z m220 0 c0 -5 -4 -10 -10 -10 -5 0 -10 5 -10 10 0 6 5 10 10 10 6 0
10 -4 10 -10z m-8935 -60 c121 -6 227 -10 234 -10 9 0 11 -3 5 -8 -5 -5 -83
-6 -174 -1 -91 4 -249 10 -352 14 -107 4 -188 11 -188 17 0 5 50 7 128 3 70
-3 226 -10 347 -15z m-589 -31 c-26 -6 -43 -6 -50 1 -7 7 6 10 40 9 l49 -1
-39 -9z m5716 -20 c12 -6 32 -25 46 -41 13 -16 40 -35 59 -43 47 -20 185 -19
275 1 44 10 94 14 128 11 48 -4 58 -2 69 14 6 11 16 17 21 14 6 -4 7 1 3 11
-5 14 -2 16 18 9 13 -4 38 -8 55 -9 17 -1 39 -7 48 -15 9 -7 31 -21 49 -30 17
-9 31 -22 30 -28 -2 -7 6 -31 17 -55 11 -24 20 -56 20 -73 0 -16 6 -41 13 -55
8 -14 22 -56 32 -93 28 -103 7 -257 -35 -257 -10 0 -23 -6 -29 -14 -7 -8 -28
-17 -49 -21 -20 -4 -50 -13 -67 -20 -69 -30 -99 -35 -182 -28 -53 4 -87 11
-90 18 -6 16 -43 7 -43 -10 0 -15 -31 -25 -77 -25 -17 0 -35 -5 -39 -11 -5 -8
-37 -10 -103 -7 -74 4 -101 2 -118 -9 -28 -19 -29 -34 -3 -58 27 -24 25 -36
-7 -67 -73 -66 -178 -54 -116 14 17 19 15 28 -9 32 -7 2 -26 8 -43 15 -16 7
-61 18 -99 25 -46 9 -74 20 -85 34 -9 11 -22 21 -30 24 -8 2 -22 24 -31 48
-14 37 -23 46 -46 48 -16 2 -33 8 -38 13 -6 5 -20 9 -33 9 -21 0 -23 4 -23 50
0 48 1 50 37 65 21 9 40 21 44 27 10 15 50 3 84 -26 60 -52 300 -53 348 -1
l22 24 1 -45 c1 -55 17 -76 34 -45 6 12 9 30 6 39 -4 10 4 38 16 63 14 27 23
63 23 93 0 48 1 49 38 62 50 17 70 5 85 -52 18 -67 112 -160 112 -110 0 10 18
12 89 8 75 -4 98 -1 147 18 59 22 74 33 74 59 0 9 -7 11 -24 7 -14 -3 -28 -1
-32 5 -11 19 19 30 63 24 34 -5 44 -3 51 12 15 28 2 114 -21 138 -10 11 -24
32 -29 47 -5 15 -19 30 -31 35 -38 12 -140 5 -217 -17 -192 -55 -255 -63 -464
-62 -109 0 -203 5 -207 9 -10 10 25 53 41 53 6 0 10 11 10 25 0 14 4 25 9 25
5 0 12 11 15 25 4 14 11 25 17 25 6 0 8 4 5 9 -6 10 87 48 122 50 13 0 33 -4
44 -10z m1138 -33 c0 -8 -4 -18 -10 -21 -5 -3 -10 3 -10 14 0 12 5 21 10 21 6
0 10 -6 10 -14z m239 1 c88 -1 115 -5 119 -16 4 -12 -7 -13 -58 -8 -35 4 -98
7 -141 7 -60 0 -79 3 -79 14 0 8 8 12 23 10 12 -2 73 -5 136 -7z m-179 -7 c0
-5 -2 -10 -4 -10 -3 0 -8 5 -11 10 -3 6 -1 10 4 10 6 0 11 -4 11 -10z m-6312
-36 c161 -11 86 -21 -98 -13 -256 11 -380 20 -380 27 0 7 308 -2 478 -14z
m-629 -80 c2 -2 2 -7 -2 -10 -9 -9 -98 6 -92 16 5 7 84 2 94 -6z m51 -4 c12
-8 11 -10 -7 -10 -13 0 -23 5 -23 10 0 13 11 13 30 0z m3347 -12 c19 12 95 2
90 -12 -5 -16 -137 -17 -137 -1 0 18 12 26 24 15 7 -5 17 -6 23 -2z m529 -17
c-11 -17 -116 -9 -116 9 0 10 101 18 114 8 4 -3 5 -11 2 -17z m860 18 c10 -17
-13 -36 -27 -22 -12 12 -4 33 11 33 5 0 12 -5 16 -11z m49 -19 c-5 -8 -11 -8
-17 -2 -6 6 -7 16 -3 22 5 8 11 8 17 2 6 -6 7 -16 3 -22z m-1275 11 c0 -12
-29 -23 -41 -15 -18 10 -9 24 16 24 14 0 25 -4 25 -9z m60 0 c0 -15 -16 -22
-34 -15 -25 9 -19 24 9 24 14 0 25 -4 25 -9z m70 -1 c0 -5 -11 -10 -25 -10
-14 0 -25 5 -25 10 0 6 11 10 25 10 14 0 25 -4 25 -10z m97 -2 c-4 -14 -56
-12 -71 3 -6 5 7 9 33 9 30 0 41 -4 38 -12z m230 0 c-3 -11 -19 -14 -64 -9 -7
0 -13 6 -13 11 0 6 18 10 41 10 28 0 39 -4 36 -12z m71 0 c-3 -7 -11 -13 -18
-13 -7 0 -15 6 -17 13 -3 7 4 12 17 12 13 0 20 -5 18 -12z m102 2 c0 -5 -4
-10 -10 -11 -42 -4 -64 -1 -68 9 -2 8 10 12 37 12 23 0 41 -4 41 -10z m74 1
c7 -10 -23 -20 -41 -14 -7 3 -13 9 -13 14 0 12 47 12 54 0z m-4324 -11 c12 -8
9 -10 -12 -10 -15 0 -30 5 -33 10 -8 13 25 13 45 0z m68 -9 c3 -8 -1 -12 -9
-9 -7 2 -15 10 -17 17 -3 8 1 12 9 9 7 -2 15 -10 17 -17z m487 4 c138 -8 294
-15 348 -15 57 0 97 -4 97 -10 0 -9 -215 -6 -370 5 -36 3 -141 8 -235 11 -93
4 -174 10 -179 15 -13 12 44 11 339 -6z m3315 -47 c0 -5 -21 -8 -46 -8 -32 0
-44 4 -42 13 3 6 16 12 31 12 14 1 29 4 33 8 7 7 24 -10 24 -25z m99 17 c13 0
26 -5 28 -11 5 -14 -78 -26 -91 -14 -12 12 13 42 28 32 6 -4 22 -7 35 -7z
m616 5 c3 -5 20 -10 38 -10 40 0 24 -16 -25 -23 -41 -6 -66 11 -46 31 15 15
25 15 33 2z m382 -6 c8 -21 -13 -42 -28 -27 -13 13 -5 43 11 43 6 0 13 -7 17
-16z m-4572 -4 c7 -12 -79 -12 -145 -1 -39 7 -32 9 47 10 52 0 95 -3 98 -9z
m3102 -4 c12 -11 -7 -19 -47 -19 -44 0 -56 6 -46 22 7 11 82 8 93 -3z m101 4
c41 0 22 -17 -25 -23 -54 -6 -58 -4 -49 19 4 11 13 14 29 10 12 -3 32 -6 45
-6z m780 1 c7 -1 10 -5 7 -11 -8 -12 -82 -13 -89 -1 -9 14 3 19 37 16 18 -2
38 -3 45 -4z m130 0 c6 -1 12 -5 12 -11 0 -5 -20 -10 -45 -10 -32 0 -45 4 -45
14 0 13 6 13 78 7z m250 0 c6 -1 12 -5 12 -11 0 -5 -20 -9 -45 -8 -31 0 -45 5
-45 14 0 10 10 13 33 10 17 -3 38 -5 45 -5z m122 -1 c36 0 12 -18 -30 -22 -28
-2 -35 1 -38 16 -3 15 0 18 19 13 13 -4 35 -7 49 -7z m-1130 -10 c0 -5 -13
-10 -30 -10 -16 0 -30 5 -30 10 0 6 14 10 30 10 17 0 30 -4 30 -10z m380 0 c0
-5 -20 -10 -45 -10 -25 0 -45 5 -45 10 0 6 20 10 45 10 25 0 45 -4 45 -10z
m130 -1 c0 -6 -16 -8 -40 -6 -57 5 -62 17 -7 17 26 0 47 -5 47 -11z m2608 -8
c7 -4 15 -17 16 -27 2 -12 12 -20 29 -22 31 -4 37 -22 7 -22 -11 0 -20 -7 -20
-15 0 -12 14 -15 65 -15 41 0 65 -4 65 -11 0 -8 -19 -10 -60 -6 -62 5 -80 -4
-60 -28 8 -9 8 -15 0 -20 -6 -3 -8 -11 -5 -16 4 -5 1 -17 -4 -26 -9 -15 -10
-12 -7 14 7 63 -14 142 -46 173 -24 25 -26 30 -11 30 10 0 24 -4 31 -9z m240
-10 c73 -1 92 -4 92 -15 0 -10 -7 -13 -20 -11 -11 2 -73 5 -138 6 -121 2 -142
5 -142 20 0 5 26 7 58 5 31 -2 99 -4 150 -5z m-3538 -23 c0 -9 3 -9 12 0 7 7
21 12 33 11 20 0 20 0 0 -9 -26 -11 -27 -11 160 -10 92 0 161 5 163 10 2 6 44
9 95 8 l92 -2 -90 -5 c-57 -4 -81 -9 -66 -13 13 -4 20 -11 16 -17 -4 -7 -62
-12 -153 -13 l-147 -2 120 -6 120 -6 -138 -1 c-75 -1 -140 3 -143 8 -3 5 -19
9 -35 9 -17 0 -28 -4 -25 -9 4 -6 -34 -9 -91 -7 -85 1 -98 4 -101 19 -8 38 4
44 92 45 59 1 86 -2 86 -10z m123 5 c-7 -2 -21 -2 -30 0 -10 3 -4 5 12 5 17 0
24 -2 18 -5z m165 0 c-27 -2 -69 -2 -95 0 -27 2 -5 3 47 3 52 0 74 -1 48 -3z
m330 0 c-10 -2 -28 -2 -40 0 -13 2 -5 4 17 4 22 1 32 -1 23 -4z m85 0 c-13 -2
-33 -2 -45 0 -13 2 -3 4 22 4 25 0 35 -2 23 -4z m115 0 c-10 -2 -28 -2 -40 0
-13 2 -5 4 17 4 22 1 32 -1 23 -4z m255 0 c-7 -2 -21 -2 -30 0 -10 3 -4 5 12
5 17 0 24 -2 18 -5z m245 0 c-32 -2 -84 -2 -115 0 -32 2 -6 3 57 3 63 0 89 -1
58 -3z m2382 -3 c0 -5 -7 -7 -15 -4 -8 4 -15 8 -15 10 0 2 7 4 15 4 8 0 15 -4
15 -10z m170 0 c0 -6 -32 -10 -75 -10 -43 0 -75 4 -75 10 0 6 32 10 75 10 43
0 75 -4 75 -10z m-5561 -26 c2 -2 -10 -4 -27 -4 -18 0 -32 5 -32 10 0 9 47 4
59 -6z m5218 -7 c-3 -11 -19 -12 -119 -8 -16 1 -28 5 -28 10 0 5 34 9 76 9 52
0 74 -3 71 -11z m81 4 c10 -6 10 -10 -3 -21 -18 -15 -42 0 -31 19 8 13 16 14
34 2z m102 -11 c0 -5 -9 -10 -20 -10 -11 0 -20 5 -20 10 0 6 9 10 20 10 11 0
20 -4 20 -10z m44 -5 c3 -8 1 -15 -4 -15 -6 0 -10 7 -10 15 0 8 2 15 4 15 2 0
6 -7 10 -15z m106 1 c0 -11 -19 -15 -25 -6 -3 5 1 10 9 10 9 0 16 -2 16 -4z
m308 -14 c3 -11 -19 -13 -119 -8 -68 3 -136 5 -151 5 -16 1 -28 6 -28 11 0 17
292 8 298 -8z m-5838 -33 c25 -23 38 -39 30 -36 -84 26 -120 43 -120 59 0 31
42 20 90 -23z m2063 34 c-7 -2 -19 -2 -25 0 -7 3 -2 5 12 5 14 0 19 -2 13 -5z
m755 0 c-137 -2 -359 -2 -495 0 -137 1 -25 2 247 2 272 0 384 -1 248 -2z
m1636 1 c18 -7 12 -24 -10 -24 -8 0 -14 7 -14 15 0 17 2 18 24 9z m452 -53
l11 -52 -27 32 c-18 22 -25 40 -22 56 7 38 25 21 38 -36z m-6126 28 c336 -14
465 -30 195 -23 -110 3 -283 9 -385 15 -102 5 -204 9 -227 9 -26 0 -43 5 -43
11 0 9 28 10 103 6 56 -4 217 -12 357 -18z m4974 2 c3 -5 -5 -11 -19 -13 -28
-6 -35 8 -7 15 9 3 18 5 19 6 1 0 4 -3 7 -8z m1491 -1 c4 -6 -12 -10 -39 -10
-25 0 -46 5 -46 10 0 6 18 10 39 10 22 0 43 -4 46 -10z m144 -11 c-19 -12 -79
-11 -79 0 0 12 28 18 64 12 20 -2 24 -6 15 -12z m-7203 1 c32 0 54 -4 54 -11
0 -7 -25 -9 -77 -6 -96 6 -91 5 -73 17 8 5 21 8 28 5 8 -3 38 -5 68 -5z m3498
3 c4 -4 45 -8 91 -8 84 0 102 -5 90 -24 -7 -13 -225 -12 -225 0 0 31 26 50 44
32z m2626 -3 c0 -5 -4 -10 -10 -10 -5 0 -10 5 -10 10 0 6 5 10 10 10 6 0 10
-4 10 -10z m1190 0 c-19 -12 -90 -13 -90 -1 0 4 24 9 53 9 37 1 48 -1 37 -8z
m170 -11 c0 -5 -18 -9 -40 -9 -37 0 -55 13 -28 22 18 6 68 -3 68 -13z m-7633
5 c-3 -3 -12 -4 -19 -1 -8 3 -5 6 6 6 11 1 17 -2 13 -5z m4667 0 c33 -13 14
-25 -34 -23 -52 3 -67 14 -27 22 37 7 45 7 61 1z m144 -3 c12 -1 22 -6 22 -11
0 -6 -24 -10 -60 -9 -33 1 -60 6 -60 10 0 8 36 16 60 13 8 -1 25 -3 38 -3z
m135 0 c52 -2 27 -21 -28 -21 -41 0 -55 4 -55 14 0 10 9 13 28 11 15 -2 39 -4
55 -4z m118 -1 c24 0 38 -4 34 -10 -3 -5 -28 -10 -56 -10 -38 0 -49 3 -49 16
0 11 5 14 16 10 9 -3 34 -6 55 -6z m2469 0 c0 -5 -4 -10 -9 -10 -6 0 -13 5
-16 10 -3 6 1 10 9 10 9 0 16 -4 16 -10z m-6847 -16 c97 -4 177 -11 177 -16 0
-8 -256 -3 -345 7 -16 2 -76 4 -132 4 -70 1 -103 5 -103 12 0 9 32 10 113 5
61 -3 192 -9 290 -12z m3207 6 c0 -5 -2 -10 -4 -10 -3 0 -8 5 -11 10 -3 6 -1
10 4 10 6 0 11 -4 11 -10z m330 0 c0 -6 -60 -10 -160 -10 -100 0 -160 4 -160
10 0 6 60 10 160 10 100 0 160 -4 160 -10z m2055 -10 c4 -6 -7 -10 -27 -9 -31
1 -32 1 -8 9 14 4 26 8 27 9 1 1 5 -3 8 -9z m-6267 -7 c-10 -2 -26 -2 -35 0
-10 3 -2 5 17 5 19 0 27 -2 18 -5z m169 -10 c3 -9 -22 -10 -109 -4 -10 0 -18
5 -18 10 0 13 123 7 127 -6z m2395 -8 c4 -20 3 -23 -8 -14 -16 13 -19 39 -5
39 5 0 11 -11 13 -25z m3228 5 c0 -5 -7 -10 -16 -10 -8 0 -12 5 -9 10 3 6 10
10 16 10 5 0 9 -4 9 -10z m-3770 -30 c8 -5 11 -10 5 -10 -5 0 -17 5 -25 10 -8
5 -10 10 -5 10 6 0 17 -5 25 -10z m-1525 -10 c20 -5 -3 -8 -70 -9 -55 0 -107
4 -115 9 -18 12 139 12 185 0z m1560 -60 c14 -15 15 -20 4 -20 -8 0 -20 9 -27
20 -7 11 -8 20 -4 20 5 0 17 -9 27 -20z m615 4 c0 -19 -26 -24 -27 -5 -1 10 5
18 13 18 8 0 14 -6 14 -13z m4217 -21 c-3 -10 -5 -4 -5 12 0 17 2 24 5 18 2
-7 2 -21 0 -30z m-3196 17 c10 0 19 -4 19 -10 0 -5 -16 -10 -35 -10 -25 0 -35
4 -35 16 0 11 5 14 16 10 9 -3 24 -6 35 -6z m252 4 c20 -4 37 -10 37 -14 0
-10 -217 -13 -233 -3 -25 16 122 29 196 17z m-3478 -13 c52 -11 41 -12 -80
-11 -55 1 -104 5 -109 11 -12 11 132 11 189 0z m6582 -8 c4 -10 -12 -13 -57
-13 -38 0 -59 -4 -55 -10 3 -5 15 -10 26 -10 10 0 19 -6 19 -13 0 -9 -9 -12
-28 -9 -22 3 -28 9 -26 25 1 12 3 27 3 32 1 15 113 13 118 -2z m-6402 -3 c23
-6 15 -8 -37 -9 -37 0 -70 4 -73 9 -7 12 64 12 110 0z m6142 -37 c-3 -10 -5
-2 -5 17 0 19 2 27 5 18 2 -10 2 -26 0 -35z m-5869 27 c34 0 62 -4 62 -8 0
-12 -261 -2 -280 10 -10 6 15 7 70 4 47 -3 113 -6 148 -6z m1122 -12 c0 -4 9
-8 20 -8 11 0 23 -7 26 -15 4 -8 10 -15 16 -15 5 0 6 5 3 10 -3 6 0 10 7 10
15 0 148 -106 148 -117 0 -3 -8 1 -18 10 -10 9 -38 23 -62 32 -24 9 -65 28
-90 44 -25 16 -58 36 -75 45 l-30 15 28 -2 c15 -1 27 -5 27 -9z m5103 -17 c38
-1 57 -5 57 -13 0 -10 -25 -12 -100 -10 -75 3 -100 7 -100 17 0 9 12 12 43 10
23 -2 68 -4 100 -4z m-6718 -21 c8 -13 -95 -13 -115 0 -11 7 3 10 47 10 34 0
65 -4 68 -10z m4068 -19 c17 -17 -4 -32 -46 -31 -95 2 -289 -4 -254 -7 30 -4
37 -8 37 -26 l0 -22 -312 2 c-172 1 -317 2 -322 3 -4 0 -5 8 -1 18 4 9 7 31 6
47 l-1 30 441 -2 c264 -1 446 -6 452 -12z m2342 -33 c5 -26 -16 -45 -36 -32
-14 8 -11 62 4 67 17 6 27 -5 32 -35z m223 26 c7 -2 11 -8 8 -13 -8 -13 -138
-1 -154 14 -11 10 0 12 60 8 40 -3 79 -6 86 -9z m-2138 -14 c0 -13 -73 -22
-115 -14 -51 9 -31 22 40 26 64 3 75 2 75 -12z m255 0 c0 -12 -19 -15 -100
-18 -100 -2 -134 6 -120 27 4 8 41 11 113 9 87 -2 107 -6 107 -18z m1731 -42
c-8 -14 -8 -21 2 -27 10 -6 8 -10 -9 -14 -33 -9 -12 -27 34 -30 20 -2 40 -6
44 -11 4 -5 -17 -6 -47 -3 -51 4 -57 3 -80 -24 -18 -21 -31 -27 -46 -23 -17 5
-21 13 -20 50 1 46 14 56 36 29 11 -13 14 -13 26 2 7 10 14 26 14 36 0 10 7
29 16 43 15 22 18 23 29 7 10 -13 10 -21 1 -35z m-6153 1 c125 -7 227 -16 227
-21 0 -4 -35 -6 -77 -3 -43 2 -136 7 -208 10 -71 3 -147 9 -167 12 -30 4 -38
2 -38 -10 0 -25 -21 -31 -27 -8 -5 19 -12 21 -89 21 -51 0 -86 4 -90 11 -7 12
-5 12 469 -12z m6327 5 c0 -10 -15 -14 -55 -14 -41 0 -55 4 -55 14 0 11 14 14
55 14 40 0 55 -4 55 -14z m235 -12 c16 -10 -1 -12 -95 -8 -63 3 -116 5 -117 6
-2 0 -3 5 -3 11 0 15 188 7 215 -9z m120 -2 c4 -6 -8 -10 -29 -10 -19 0 -38 5
-41 10 -4 6 8 10 29 10 19 0 38 -4 41 -10z m174 -9 c6 -10 10 -10 16 -1 8 14
123 11 143 -3 8 -6 12 -5 12 2 0 6 5 11 10 11 6 0 10 -7 10 -16 0 -13 -15 -15
-112 -10 -62 2 -132 5 -155 5 -28 1 -43 6 -43 14 0 17 108 16 119 -2z m-2314
-51 c21 -17 45 -63 45 -87 1 -10 9 -36 20 -58 23 -47 26 -95 7 -95 -8 0 -16 3
-20 6 -3 4 -132 6 -287 5 -191 -2 -280 1 -280 8 0 8 84 11 260 11 143 0 260 2
260 5 0 3 -6 16 -14 28 -8 12 -17 42 -21 67 -4 25 -12 51 -19 59 -9 12 -8 12
11 3 12 -7 25 -17 28 -22 10 -16 25 -11 25 8 0 10 -11 29 -25 42 -15 14 -25
34 -24 49 0 24 1 24 9 6 4 -12 15 -27 25 -35z m-2975 5 c19 -23 4 -30 -25 -11
-30 20 -36 53 -7 37 10 -5 25 -17 32 -26z m4665 25 c-3 -5 -15 -10 -25 -10
-10 0 -22 5 -25 10 -4 6 7 10 25 10 18 0 29 -4 25 -10z m-5295 -9 c0 -6 -4
-13 -10 -16 -5 -3 -10 1 -10 9 0 9 5 16 10 16 6 0 10 -4 10 -9z m2426 -1 c49
0 84 -4 84 -10 0 -6 -70 -10 -190 -10 -115 0 -190 4 -190 10 0 8 167 20 198
13 8 -2 52 -3 98 -3z m3022 3 c-10 -2 -26 -2 -35 0 -10 3 -2 5 17 5 19 0 27
-2 18 -5z m-6704 -12 c7 -10 -100 -9 -110 2 -4 4 18 7 49 7 31 0 58 -4 61 -9z
m3376 -1 c0 -6 -42 -10 -105 -10 -63 0 -105 4 -105 10 0 6 42 10 105 10 63 0
105 -4 105 -10z m576 -2 c4 -5 -32 -8 -79 -8 -48 0 -87 4 -87 8 0 10 156 10
166 0z m-3076 -12 c0 -8 -4 -18 -10 -21 -5 -3 -10 3 -10 14 0 12 5 21 10 21 6
0 10 -6 10 -14z m3728 -1 c13 -13 -20 -21 -76 -19 -31 1 -90 2 -129 3 -67 1
-98 14 -55 23 27 6 253 0 260 -7z m-3025 -1 c5 -5 -44 -118 -57 -131 -10 -10
7 72 21 105 15 31 24 38 36 26z m3057 -4 c0 -5 -4 -10 -10 -10 -5 0 -10 5 -10
10 0 6 5 10 10 10 6 0 10 -4 10 -10z m1315 -52 c38 -45 33 -57 -22 -52 -26 3
-57 11 -69 19 -21 14 -39 75 -22 75 5 0 7 4 4 9 -14 22 87 -25 109 -51z m695
42 c0 -12 -10 -16 -40 -15 -31 0 -40 4 -40 17 0 13 8 17 40 15 29 -1 40 -6 40
-17z m126 -3 c4 -3 -19 -6 -50 -6 -31 1 -56 5 -56 10 0 10 96 6 106 -4z m84 6
c-1 -30 -53 -39 -58 -10 -3 13 3 17 27 17 17 0 31 -3 31 -7z m-6819 -39 c85
-3 161 -10 169 -16 9 -5 -29 -7 -105 -3 -174 8 -245 16 -239 26 3 5 9 7 13 5
4 -3 77 -8 162 -12z m3414 -5 c4 3 203 2 559 -2 101 -2 140 -5 143 -14 4 -10
-47 -13 -233 -13 -130 0 -235 -2 -232 -5 3 -3 114 -6 247 -6 204 0 241 -2 241
-14 0 -13 -32 -15 -202 -15 -111 0 -198 -3 -195 -6 4 -4 65 -6 138 -5 114 1
130 -1 127 -14 -3 -15 -46 -16 -413 -16 -225 0 -422 0 -437 1 -17 0 -28 5 -28
14 0 12 46 14 295 14 163 -1 298 2 302 6 3 3 -129 6 -295 6 -256 0 -302 2
-302 14 0 13 39 14 255 13 140 -1 255 1 255 6 0 7 -123 10 -317 7 -73 -1 -93
2 -93 13 0 22 3 22 95 17 48 -3 88 -3 90 -1z m-205 -9 c11 -7 2 -10 -32 -10
-27 0 -48 5 -48 10 0 13 60 13 80 0z m-2645 -20 c38 -6 -3 -6 -109 -3 -93 3
-192 9 -220 14 -67 10 248 0 329 -11z m1041 7 c6 -17 -12 -67 -25 -67 -8 0 -9
38 -2 73 2 12 21 8 27 -6z m164 -21 c0 -3 -4 -8 -10 -11 -5 -3 -10 -1 -10 4 0
6 5 11 10 11 6 0 10 -2 10 -4z m-50 -15 c0 -13 -28 -22 -35 -11 -3 4 1 11 7
13 20 8 28 8 28 -2z m149 0 c16 -10 6 -31 -15 -31 -8 0 -14 9 -14 20 0 22 7
25 29 11z m2918 -5 c4 -3 -53 -6 -126 -6 -73 0 -130 4 -127 9 6 9 244 7 253
-3z m-4812 -6 c5 -7 -16 -9 -62 -4 -89 9 -93 14 -10 14 36 0 69 -5 72 -10z
m6482 -16 c2 -7 -21 -12 -57 -13 -65 -2 -100 5 -100 20 0 13 153 6 157 -7z
m177 -2 c80 -11 67 -28 -16 -22 -40 3 -90 6 -111 6 -36 -1 -44 4 -30 17 8 8
91 8 157 -1z m276 -13 c0 -3 25 -4 55 -1 61 5 105 -3 105 -19 0 -8 -16 -10
-47 -6 -27 4 -97 7 -158 8 -117 1 -155 6 -155 20 0 5 45 7 100 6 55 -1 100 -5
100 -8z m-6695 -44 c22 -1 83 -5 135 -8 52 -4 142 -9 200 -13 58 -3 107 -8
110 -11 9 -10 -727 25 -790 37 -38 8 119 5 345 -5z m5400 -5 c3 -5 1 -10 -4
-10 -6 0 -11 5 -11 10 0 6 2 10 4 10 3 0 8 -4 11 -10z m-5669 -21 c3 -5 -22
-9 -55 -9 -34 0 -61 4 -61 10 0 12 108 11 116 -1z m3302 -21 c-5 -14 -90 -23
-115 -14 -31 12 1 26 58 26 44 0 60 -3 57 -12z m2556 -19 c-11 -4 -28 -19 -37
-33 -11 -16 -27 -26 -42 -26 -14 0 -25 -5 -25 -11 0 -7 -9 -9 -21 -6 -12 3
-31 1 -44 -5 -17 -7 -30 -6 -54 6 -17 9 -31 21 -31 26 0 4 -8 10 -17 12 -10 2
14 7 52 11 39 4 99 15 135 25 36 11 74 17 84 14 19 -5 19 -5 0 -13z m-1222
-60 c22 -14 0 -22 -64 -21 -175 0 -228 3 -228 11 0 5 8 12 18 14 29 8 260 4
274 -4z m-5115 -5 c-3 -3 -12 -4 -19 -1 -8 3 -5 6 6 6 11 1 17 -2 13 -5z m68
-4 c-3 -5 -12 -10 -20 -10 -8 0 -17 5 -20 10 -4 6 5 10 20 10 15 0 24 -4 20
-10z m2271 -46 c10 -82 -9 -163 -46 -196 -17 -16 -39 -28 -51 -28 -26 0 -75
26 -81 42 -7 20 3 98 13 98 5 0 9 7 9 15 0 9 12 20 26 25 38 15 92 59 99 81
11 35 23 20 31 -37z m2284 46 c0 -7 -162 -10 -465 -10 -303 0 -465 3 -465 10
0 7 162 10 465 10 303 0 465 -3 465 -10z m530 6 c0 -3 -4 -8 -10 -11 -5 -3
-10 -1 -10 4 0 6 5 11 10 11 6 0 10 -2 10 -4z m-5035 -16 c-3 -5 -10 -10 -16
-10 -5 0 -9 5 -9 10 0 6 7 10 16 10 8 0 12 -4 9 -10z m110 1 c6 -11 -60 -9
-71 2 -4 4 9 7 29 7 20 0 38 -4 42 -9z m4295 -29 c0 -7 -821 -4 -829 4 -2 2
183 4 412 4 230 0 417 -3 417 -8z m-667 -29 c-13 -2 -35 -2 -50 0 -16 2 -5 4
22 4 28 0 40 -2 28 -4z m-3349 -23 c26 0 37 -3 30 -10 -12 -12 -114 -1 -114
13 0 5 10 7 23 3 12 -3 40 -6 61 -6z m863 -12 c-3 -8 -6 -5 -6 6 -1 11 2 17 5
13 3 -3 4 -12 1 -19z m-1454 -5 c-7 -2 -21 -2 -30 0 -10 3 -5 5 12 5 17 0 24
-2 18 -5z m5397 -3 c3 -1 -15 -6 -40 -9 -55 -8 -210 -2 -210 8 0 7 239 8 250
1z m1080 -3 c0 -22 -23 -37 -57 -37 -23 0 -33 -5 -33 -15 0 -8 -8 -15 -17 -16
-10 -1 -27 -2 -38 -3 -20 -1 -35 11 -35 28 0 4 14 6 30 4 18 -3 35 1 41 9 6 7
19 13 28 13 10 0 26 7 37 15 24 18 44 19 44 2z m-6370 -21 c41 -2 77 -5 80 -6
3 -1 24 -1 48 0 27 1 42 -3 42 -10 0 -9 -28 -10 -112 -4 -62 4 -126 9 -143 9
-59 3 -66 5 -60 14 3 5 20 8 38 5 17 -2 66 -6 107 -8z m1201 -9 c-13 -13 -26
-3 -16 12 3 6 11 8 17 5 6 -4 6 -10 -1 -17z m3367 -2 c3 -3 0 -10 -8 -15 -12
-8 -10 -10 8 -10 15 0 22 -5 19 -12 -3 -10 -106 -13 -463 -15 -252 -1 -466 0
-474 3 -26 9 7 20 68 23 79 3 79 11 -1 11 -57 0 -86 8 -73 21 7 7 917 1 924
-6z m-4178 -5 c0 -5 -4 -10 -10 -10 -5 0 -10 5 -10 10 0 6 5 10 10 10 6 0 10
-4 10 -10z m110 0 c11 -7 -2 -10 -42 -10 -32 0 -58 4 -58 10 0 13 80 13 100 0z
m5629 -4 c20 -1 36 -7 39 -15 3 -10 0 -12 -12 -8 -10 4 -25 -1 -38 -13 -46
-42 -138 -29 -138 20 0 25 17 30 70 23 25 -3 60 -7 79 -7z m-5450 -12 c2 -2
-21 -4 -52 -4 -31 0 -57 4 -57 10 0 8 99 3 109 -6z m-600 -10 c2 -2 2 -7 -2
-10 -9 -9 -197 7 -191 17 5 8 183 1 193 -7z m118 -4 c23 1 44 -4 48 -10 7 -12
-25 -13 -102 -4 -29 4 -53 11 -53 17 0 5 14 7 33 3 17 -4 51 -6 74 -6z m6503
-26 c0 -13 5 -24 11 -24 8 0 8 -4 1 -12 -6 -7 -10 -37 -10 -65 -1 -42 3 -56
19 -67 29 -20 88 -114 100 -159 19 -72 -13 -127 -74 -127 -28 0 -62 33 -54 53
3 8 1 33 -4 56 -11 48 -20 329 -12 360 7 27 23 17 23 -15z m-6215 2 c11 -2
-10 -4 -47 -5 -38 0 -68 2 -68 7 0 7 67 6 115 -2z m125 -12 c0 -2 -19 -4 -42
-4 -26 0 -38 4 -30 8 12 8 72 4 72 -4z m4855 6 c4 -7 -103 -10 -314 -10 -202
0 -322 4 -326 10 -4 7 103 10 314 10 202 0 322 -4 326 -10z m840 -1 c4 -6 41
-27 82 -46 84 -41 97 -58 159 -208 21 -49 45 -101 54 -115 40 -58 62 -123 61
-183 0 -34 10 -98 22 -142 18 -65 21 -102 19 -195 -3 -168 21 -326 65 -424 31
-70 103 -277 103 -299 0 -15 33 -82 44 -89 8 -5 7 -8 -1 -8 -6 0 -9 -9 -6 -20
3 -11 10 -20 15 -20 5 0 6 -5 2 -12 -5 -8 0 -9 14 -6 12 4 22 3 22 0 0 -4 3
-18 6 -32 5 -20 4 -23 -6 -13 -17 16 -40 5 -51 -23 -8 -24 -29 -33 -29 -14 0
6 -6 10 -13 10 -9 0 -20 33 -32 95 -10 53 -24 100 -30 105 -7 6 -11 31 -9 59
2 41 -2 55 -22 77 -16 17 -32 24 -44 21 -11 -3 -18 -1 -15 3 7 11 -27 30 -53
30 -15 0 -22 -9 -26 -35 -5 -24 -14 -39 -29 -44 -14 -5 -23 -18 -24 -32 -1
-13 -19 -39 -39 -58 -35 -33 -38 -34 -68 -21 -17 7 -43 12 -58 12 -26 -1 -28
1 -28 42 0 52 -25 88 -80 116 -44 23 -48 30 -45 91 3 51 28 98 54 101 24 2 54
-1 71 -9 19 -8 19 -8 55 -18 17 -4 33 -13 37 -19 4 -5 19 -11 35 -12 15 -1 34
-2 41 -3 6 0 12 -12 12 -26 0 -16 6 -25 16 -25 10 0 14 -6 10 -15 -3 -8 -1
-15 4 -15 6 0 10 7 10 15 0 8 4 15 9 15 12 0 38 84 46 152 8 62 -4 91 -40 95
-11 2 -51 6 -90 10 -67 8 -70 9 -73 36 -4 29 -16 36 -25 13 -4 -10 -17 -13
-46 -9 -43 6 -53 -5 -26 -27 14 -12 13 -16 -6 -37 -17 -17 -32 -23 -63 -22
l-41 2 35 6 35 7 -32 8 c-37 9 -43 25 -13 33 26 7 26 23 0 23 -21 0 -40 27
-33 48 3 7 -4 16 -15 19 -12 3 -25 18 -31 34 -12 36 -28 37 -43 3 -11 -23 -9
-28 11 -43 20 -15 22 -23 17 -79 -4 -55 -3 -62 12 -60 12 2 16 -3 15 -19 -3
-24 -32 -63 -47 -63 -15 0 -76 62 -76 78 0 7 -4 11 -9 8 -9 -6 -31 76 -31 116
0 30 -32 97 -47 98 -6 0 -17 26 -24 58 -15 71 -72 185 -119 235 -59 65 -59
111 0 142 16 8 31 15 34 15 3 0 42 -29 86 -65 71 -58 118 -82 108 -56 -5 13
-139 122 -165 134 -32 14 -33 85 -2 113 11 10 52 52 91 91 107 110 130 109
253 -7 102 -97 139 -104 100 -17 -13 28 -27 68 -30 89 -9 47 -66 111 -91 101
-13 -5 -15 -3 -9 7 6 10 4 12 -8 7 -9 -3 -16 -3 -16 1 3 18 -2 26 -9 15 -6
-10 -18 -10 -57 0 -43 10 -50 16 -53 39 -4 36 35 63 77 53 17 -3 38 -2 48 4
24 14 80 14 88 0z m-5635 -8 c0 -6 -10 -8 -21 -6 -33 6 -36 15 -6 15 15 0 27
-4 27 -9z m110 -5 c8 -2 -9 -4 -37 -5 -29 0 -53 3 -53 7 0 7 52 6 90 -2z m577
-23 c-3 -10 -5 -4 -5 12 0 17 2 24 5 18 2 -7 2 -21 0 -30z m3233 27 c0 -7
-163 -10 -470 -10 -307 0 -470 3 -470 10 0 7 163 10 470 10 307 0 470 -3 470
-10z m-4320 -10 c0 -12 -20 -12 -75 -1 -40 9 -39 9 18 10 32 0 57 -3 57 -9z
m-279 -10 c16 0 29 -5 29 -10 0 -6 -20 -9 -50 -8 -27 2 -50 6 -50 9 0 12 14
19 28 14 7 -3 27 -5 43 -5z m4879 0 c0 -5 -11 -10 -25 -10 -14 0 -25 5 -25 10
0 6 11 10 25 10 14 0 25 -4 25 -10z m1978 -9 c2 -7 -11 -11 -37 -11 -28 0 -41
4 -41 13 0 17 72 15 78 -2z m-6773 -1 c4 -6 -5 -10 -19 -10 -14 0 -26 5 -26
10 0 6 9 10 19 10 11 0 23 -4 26 -10z m4555 -7 c0 -10 -105 -13 -490 -13 -385
0 -490 3 -490 13 0 9 105 12 490 12 385 0 490 -3 490 -12z m2306 6 c3 -5 -13
-9 -35 -9 -23 0 -41 4 -41 9 0 5 16 9 35 9 19 0 38 -4 41 -9z m-6665 -10 c9
-5 -21 -9 -78 -9 -51 0 -95 4 -98 10 -8 13 156 12 176 -1z m154 1 c-3 -5 -15
-10 -26 -10 -10 0 -19 5 -19 10 0 6 12 10 26 10 14 0 23 -4 19 -10z m155 0
c18 -1 21 -3 10 -9 -20 -11 -110 -2 -110 11 0 7 14 8 38 4 20 -3 48 -6 62 -6z
m6430 1 c0 -5 -9 -7 -20 -4 -11 3 -20 7 -20 9 0 2 9 4 20 4 11 0 20 -4 20 -9z
m40 -1 c0 -5 -4 -10 -10 -10 -5 0 -10 5 -10 10 0 6 5 10 10 10 6 0 10 -4 10
-10z m91 -7 c13 -15 11 -16 -11 -10 -14 4 -33 7 -42 7 -10 0 -18 5 -18 10 0
17 57 11 71 -7z m153 -1 c5 -3 2 -8 -5 -12 -19 -9 -119 0 -119 10 0 17 96 18
124 2z m-1669 -16 c-11 -6 -40 -31 -64 -55 -23 -24 -38 -34 -32 -23 14 27 103
104 110 96 3 -4 -3 -11 -14 -18z m1741 5 c-3 -5 -15 -7 -26 -4 -28 7 -25 13 6
13 14 0 23 -4 20 -9z m114 -1 c0 -5 -13 -10 -30 -10 -16 0 -30 5 -30 10 0 6
14 10 30 10 17 0 30 -4 30 -10z m55 0 c3 -5 1 -10 -4 -10 -6 0 -11 5 -11 10 0
6 2 10 4 10 3 0 8 -4 11 -10z m89 -11 c-7 -11 -64 -12 -64 -1 0 15 9 19 40 14
16 -2 27 -8 24 -13z m-6514 3 c0 -13 -12 -22 -22 -16 -10 6 -1 24 13 24 5 0 9
-4 9 -8z m3482 -14 c-2 -11 3 -18 13 -18 8 0 15 -4 15 -10 0 -5 -4 -10 -10
-10 -5 0 -10 -7 -10 -15 0 -10 10 -15 32 -15 18 0 41 -9 53 -20 21 -20 21 -20
60 0 22 11 48 20 58 20 10 0 16 4 13 9 -9 14 19 20 66 15 23 -3 44 -7 45 -8 2
-2 -32 -11 -74 -21 -43 -10 -90 -24 -105 -32 -15 -7 -31 -14 -35 -14 -5 -1
-18 -5 -31 -10 -13 -5 -28 -9 -33 -9 -5 0 -9 -4 -9 -10 0 -5 -6 -10 -13 -10
-7 0 -28 -11 -45 -24 -18 -13 -54 -26 -83 -30 -28 -4 -47 -11 -44 -16 7 -12 3
-12 -19 -4 -9 3 -14 9 -11 14 2 4 -31 10 -75 13 -43 3 -85 9 -92 14 -7 4 -31
9 -53 10 -22 1 -65 3 -95 5 l-55 3 0 40 0 40 52 0 c29 1 55 4 59 8 4 4 -24 7
-62 7 -327 1 -448 6 -452 18 -3 9 48 12 230 14 l233 2 -230 6 c-126 3 -230 9
-230 13 0 5 83 9 185 9 135 1 168 3 120 8 -36 4 -120 8 -187 9 -76 1 -123 5
-123 11 0 7 159 9 473 8 443 -3 472 -4 469 -20z m2198 12 c0 -5 -18 -10 -40
-10 -22 0 -40 5 -40 10 0 6 18 10 40 10 22 0 40 -4 40 -10z m897 -3 c0 -9 -9
-12 -24 -9 -12 2 -20 8 -17 13 8 14 41 11 41 -4z m-6496 -10 c-1 -12 -15 -9
-19 4 -3 6 1 10 8 8 6 -3 11 -8 11 -12z m166 -34 c-3 -10 -5 -2 -5 17 0 19 2
27 5 18 2 -10 2 -26 0 -35z m4254 -6 c-29 -29 -36 -16 -9 18 14 18 23 24 26
16 2 -7 -5 -22 -17 -34z m-121 -144 c-11 -17 -11 -17 -6 0 3 10 7 26 7 35 1
15 2 15 6 0 2 -10 -1 -25 -7 -35z m-3905 -19 l60 -12 -71 -1 c-39 0 -87 -3
-105 -6 l-34 -6 30 15 c17 8 24 15 18 15 -7 1 -13 6 -13 11 0 6 11 8 28 3 15
-3 54 -12 87 -19z m-925 -55 c0 -5 -7 -9 -15 -9 -15 0 -20 12 -9 23 8 8 24 -1
24 -14z m6546 -64 c30 -12 32 -14 9 -9 -16 3 -52 10 -80 14 -28 4 -38 8 -22 9
15 0 27 6 27 12 0 9 4 9 14 0 7 -6 31 -18 52 -26z m-5826 10 c-7 -8 -16 -13
-20 -10 -5 3 -11 1 -15 -5 -3 -5 3 -10 14 -10 26 0 27 -20 2 -51 -10 -13 -16
-29 -14 -36 2 -6 -1 -14 -6 -18 -6 -3 -11 -17 -11 -31 0 -14 -6 -24 -15 -24
-13 0 -20 -22 -27 -90 -2 -14 -7 -28 -13 -32 -6 -4 -2 -8 8 -8 24 0 21 -15 -8
-34 -26 -17 -90 -22 -99 -7 -3 5 -20 12 -38 15 -35 6 -178 135 -178 159 1 32
236 152 322 163 24 4 54 12 68 20 33 18 45 17 30 -1z m-292 -2 l54 -6 -79 -42
c-43 -23 -98 -53 -123 -66 -24 -13 -50 -31 -58 -39 -11 -13 -12 -12 -6 9 4 15
2 21 -4 17 -5 -3 -31 3 -56 15 -25 11 -51 17 -58 13 -7 -4 -8 -3 -4 4 4 7 1
12 -6 13 -10 0 -10 2 0 6 6 2 9 10 5 15 -4 7 2 9 15 6 12 -4 20 -2 16 3 -3 5
-15 9 -27 10 -20 1 -20 2 3 8 14 4 27 4 30 0 3 -4 14 -1 24 7 18 13 18 14 2
14 -9 0 -14 5 -11 10 7 11 199 13 283 3z m2999 -144 c-11 -17 -37 -15 -37 3 0
6 8 17 17 24 23 16 36 -2 20 -27z m3501 -32 c8 -6 12 -6 12 2 0 10 28 11 70 2
3 -1 -2 -6 -10 -11 -13 -8 -148 -3 -159 6 -1 1 0 7 3 13 8 12 64 4 84 -12z
m-3150 -12 c4 -20 4 -20 -13 0 -9 11 -14 14 -10 8 8 -16 -21 -17 -31 -1 -4 7
-3 8 4 4 7 -4 12 -2 12 4 0 20 35 6 38 -15z m3330 15 c12 0 22 -4 22 -10 0 -5
-25 -10 -56 -10 -50 0 -55 2 -43 16 7 9 21 13 33 10 12 -3 31 -6 44 -6z m111
-14 c9 -10 8 -15 -4 -20 -10 -4 -15 1 -15 14 0 24 4 25 19 6z m119 -14 c2 -7
-6 -12 -20 -12 -33 0 -68 11 -68 21 0 13 83 5 88 -9z m-3888 -43 c0 -12 -17
-11 -25 1 -4 6 -11 8 -16 5 -5 -4 -9 1 -9 9 0 9 -6 16 -12 17 -7 0 -4 4 7 9
15 6 25 3 38 -12 9 -11 17 -24 17 -29z m3975 41 c4 -6 -8 -10 -29 -10 -20 0
-36 5 -36 10 0 6 13 10 29 10 17 0 33 -4 36 -10z m115 -8 c0 -9 -14 -12 -50
-11 -47 2 -58 8 -45 21 12 12 95 3 95 -10z m-2414 -22 c13 -5 24 -16 24 -25 0
-8 17 -34 37 -56 33 -36 35 -41 15 -35 -58 19 -202 116 -202 137 0 7 90 -8
126 -21z m2501 8 c-3 -8 -6 -5 -6 6 -1 11 2 17 5 13 3 -3 4 -12 1 -19z m-4084
-75 l5 -27 -19 25 c-10 13 -19 30 -19 38 0 24 27 -7 33 -36z m3972 -19 c66 -3
132 -5 147 -5 15 1 29 -3 33 -9 5 -9 -6 -14 -26 -12 -4 1 -53 4 -110 7 -158 9
-210 15 -203 26 3 5 13 8 22 5 10 -3 71 -8 137 -12z m-7781 -13 c8 -12 -18
-21 -57 -20 l-32 1 35 13 c43 17 47 17 54 6z m8081 -11 c4 -6 -5 -10 -19 -10
-14 0 -26 5 -26 10 0 6 9 10 19 10 11 0 23 -4 26 -10z m75 -6 c0 -2 -13 -4
-30 -4 -16 0 -30 4 -30 8 0 5 14 7 30 4 17 -2 30 -6 30 -8z m110 -4 c11 -7 4
-10 -27 -10 -23 0 -45 5 -48 10 -8 13 55 13 75 0z m110 -8 c0 -4 -9 -8 -20 -8
-11 0 -20 4 -20 8 0 4 9 8 20 8 11 0 20 -4 20 -8z m220 -8 c17 -4 27 -10 21
-14 -15 -9 -71 0 -71 11 0 11 7 11 50 3z m-8065 -20 c28 -8 86 -18 130 -22
l80 -8 -33 -17 c-27 -15 -46 -17 -105 -11 -40 4 -80 11 -89 15 -9 5 -40 11
-67 12 -58 4 -69 10 -51 32 16 19 71 19 135 -1z m8155 6 c0 -5 -7 -10 -15 -10
-8 0 -15 5 -15 10 0 6 7 10 15 10 8 0 15 -4 15 -10z m132 -10 c18 -8 12 -9
-27 -5 -27 3 -53 9 -58 14 -11 11 55 4 85 -9z m-9157 -5 c-45 -19 -115 -29
-115 -16 0 6 6 11 13 12 6 1 27 2 45 4 18 1 36 5 39 9 4 3 16 6 27 5 17 0 15
-3 -9 -14z m699 0 c-7 -16 -39 -21 -48 -6 -8 12 4 21 30 21 17 0 22 -4 18 -15z
m8671 -6 c11 -11 -23 -11 -117 -2 -38 3 -68 9 -68 12 0 9 174 0 185 -10z
m-7725 -69 c0 -18 -14 -10 -52 26 -50 47 -48 52 7 14 25 -17 45 -35 45 -40z
m7790 66 c0 -3 -4 -8 -10 -11 -5 -3 -10 -1 -10 4 0 6 5 11 10 11 6 0 10 -2 10
-4z m-6000 -51 c-6 -30 -8 -33 -9 -13 -1 25 8 62 14 56 2 -2 -1 -21 -5 -43z
m-2020 -53 c0 -21 -43 -63 -80 -79 -44 -19 -81 -33 -85 -33 -30 0 58 94 108
115 43 19 57 18 57 -3z m-531 -7 c-28 -15 -82 -9 -57 6 7 5 29 9 48 8 l35 0
-26 -14z m2538 -52 c-3 -10 -5 -2 -5 17 0 19 2 27 5 18 2 -10 2 -26 0 -35z
m5469 27 c24 0 44 -4 44 -8 0 -13 -127 -112 -144 -112 -17 0 -51 104 -40 122
4 6 24 8 52 4 25 -3 64 -6 88 -6z m-8418 -34 c-16 -9 -25 -9 -30 -2 -4 7 2 14
15 17 32 9 43 -1 15 -15z m276 17 c5 -5 29 -8 54 -8 42 0 46 -2 53 -29 5 -16
20 -42 35 -57 16 -17 27 -40 28 -59 1 -23 5 -29 16 -24 54 22 70 14 98 -50 11
-22 26 -47 35 -55 12 -10 14 -17 7 -26 -6 -7 -9 -21 -8 -32 2 -13 -12 -31 -42
-54 -53 -41 -61 -66 -29 -90 l24 -18 -25 -9 c-35 -13 -57 -4 -85 33 -29 37
-34 109 -11 140 12 17 18 18 40 7 22 -10 26 -9 26 3 0 8 -5 15 -11 15 -5 0
-23 14 -39 31 -26 29 -30 30 -49 16 l-22 -14 23 -6 c22 -6 22 -7 3 -21 -11 -9
-48 -25 -81 -36 l-62 -21 -34 23 c-18 13 -53 32 -76 43 -23 11 -42 24 -42 29
0 13 153 2 158 -12 2 -7 10 -12 19 -12 18 0 45 25 36 34 -4 3 0 6 8 6 8 0 20
-5 26 -11 7 -7 12 -6 16 5 4 11 1 13 -11 9 -15 -6 -15 -5 -3 10 12 15 10 18
-10 25 -15 6 -18 11 -11 16 19 11 14 42 -13 96 -14 27 -25 56 -25 63 0 8 -10
22 -22 30 -13 9 -18 16 -12 16 6 1 14 -2 18 -6z m8579 -14 l168 -12 -3 -65 -3
-64 -75 -24 c-41 -13 -106 -30 -145 -39 -67 -14 -71 -14 -85 5 -13 18 -19 18
-53 8 -22 -7 -36 -17 -33 -24 2 -6 -7 -17 -20 -23 -35 -15 -49 -14 -35 3 16
19 -55 43 -148 49 -67 4 -90 14 -91 38 0 3 26 25 58 47 31 23 77 60 102 82
l45 40 75 -5 c41 -2 151 -10 243 -16z m-9068 1 c3 -5 -1 -10 -9 -10 -8 0 -18
5 -21 10 -3 6 1 10 9 10 8 0 18 -4 21 -10z m15 -59 c0 -5 8 -11 18 -13 11 -2
-5 -14 -42 -31 -32 -15 -61 -25 -63 -23 -6 5 39 31 49 28 3 -1 12 5 18 13 10
12 9 15 -9 15 -11 0 -21 5 -21 10 0 6 11 10 25 10 14 0 25 -4 25 -9z m1300
-20 c0 -5 -28 -23 -62 -41 -35 -18 -76 -40 -93 -50 -16 -9 -55 -31 -85 -47
-30 -17 -85 -47 -122 -67 -37 -21 -75 -36 -85 -34 -21 4 73 58 387 219 63 33
60 32 60 20z m7918 -186 c2 -43 1 -83 -1 -90 -4 -8 -43 -8 -153 1 -248 21
-400 38 -374 42 14 2 30 7 35 12 6 4 22 10 38 14 23 5 27 3 27 -14 0 -16 7
-20 32 -20 30 0 30 1 14 19 -21 23 -16 27 51 36 28 4 109 24 180 44 70 21 133
37 138 36 6 -1 11 -37 13 -80z m-8238 45 c-17 -11 -40 -13 -40 -4 0 15 35 32
45 23 6 -7 5 -13 -5 -19z m-880 -30 c13 -8 10 -14 -14 -33 -18 -15 -26 -28
-22 -36 10 -16 -21 -40 -51 -41 -29 0 -39 18 -20 38 15 14 14 16 -5 26 -12 6
-23 16 -25 23 -8 24 105 44 137 23z m8490 -50 c20 0 30 -4 25 -9 -11 -10 -183
3 -193 15 -4 4 25 4 63 0 39 -3 86 -6 105 -6z m-380 -43 c0 -12 7 -33 16 -45
14 -21 14 -22 -7 -22 -12 0 -46 14 -77 32 -51 29 -53 32 -37 45 11 7 38 13 62
13 38 0 43 -3 43 -23z m-7320 -53 c0 -8 -64 7 -75 18 -7 6 -4 14 9 23 17 13
22 12 43 -11 12 -14 23 -27 23 -30z m410 -16 c0 -42 -103 -66 -250 -59 -27 1
-38 7 -47 28 -7 15 -10 29 -7 32 3 3 58 9 122 12 64 3 132 6 150 7 27 2 32 -1
32 -20z m60 18 c0 -11 -19 -15 -25 -6 -3 5 1 10 9 10 9 0 16 -2 16 -4z m6657
-48 c-3 -8 -6 -5 -6 6 -1 11 2 17 5 13 3 -3 4 -12 1 -19z m-13 -52 c-3 -15 -8
-25 -11 -23 -2 3 -1 17 3 31 3 15 8 25 11 23 2 -3 1 -17 -3 -31z m-6694 -5 c0
-5 -11 -12 -24 -15 -13 -3 -32 -8 -43 -11 -10 -3 0 4 22 15 47 23 45 22 45 11z
m-227 -52 c-6 -6 -30 -13 -54 -15 -41 -5 -43 -4 -25 10 23 18 97 23 79 5z
m7840 4 c-7 -2 -21 -2 -30 0 -10 3 -4 5 12 5 17 0 24 -2 18 -5z m60 0 c-7 -2
-19 -2 -25 0 -7 3 -2 5 12 5 14 0 19 -2 13 -5z m-210 -10 c-13 -2 -33 -2 -45
0 -13 2 -3 4 22 4 25 0 35 -2 23 -4z m-6356 -9 c-3 -3 -12 -4 -19 -1 -8 3 -5
6 6 6 11 1 17 -2 13 -5z m6252 2 c-2 -2 -31 -6 -64 -9 -39 -4 -50 -3 -30 2 31
9 102 14 94 7z m-419 -16 c-8 -5 -19 -10 -25 -10 -5 0 -3 5 5 10 8 5 20 10 25
10 6 0 3 -5 -5 -10z m277 -6 c-3 -3 -12 -4 -19 -1 -8 3 -5 6 6 6 11 1 17 -2
13 -5z m-5890 -30 c40 -8 84 -14 98 -14 27 0 34 -17 11 -26 -19 -7 -256 47
-256 58 0 9 25 6 147 -18z m5563 16 c-8 -5 -19 -10 -25 -10 -5 0 -3 5 5 10 8
5 20 10 25 10 6 0 3 -5 -5 -10z m-243 -46 c-3 -3 -12 -4 -19 -1 -8 3 -5 6 6 6
11 1 17 -2 13 -5z m254 -72 c-7 -2 -18 1 -23 6 -8 8 -4 9 13 5 13 -4 18 -8 10
-11z m239 14 c0 -3 -4 -8 -10 -11 -5 -3 -10 -1 -10 4 0 6 5 11 10 11 6 0 10
-2 10 -4z m-88 -48 c-8 -8 -9 -4 -5 13 4 13 8 18 11 10 2 -7 -1 -18 -6 -23z
m-47 -13 c17 -3 20 -13 21 -52 1 -26 4 -60 8 -74 l8 -26 -115 -6 c-82 -5 -129
-13 -163 -27 -50 -22 -74 -20 -74 4 0 25 31 108 46 123 8 8 14 20 14 26 0 7 7
4 14 -5 14 -20 28 -14 19 8 -14 37 2 43 104 38 54 -3 107 -7 118 -9z m-1645
-139 c0 -39 -6 -31 -14 19 -5 29 -4 36 3 25 6 -8 11 -28 11 -44z m1486 -87 c3
-5 23 -9 45 -9 46 0 99 -24 99 -45 0 -27 -39 -44 -89 -38 -48 5 -71 17 -71 37
0 8 -17 12 -47 12 -37 -1 -48 3 -51 16 -7 33 95 57 114 27z m284 -13 c0 -35
-25 -52 -56 -38 -53 25 -39 62 24 62 27 0 32 -4 32 -24z m-6635 -7 c106 -13
225 -26 360 -38 61 -6 196 -20 300 -31 105 -11 193 -20 198 -20 4 0 7 -13 7
-30 0 -36 8 -35 -183 -15 -729 79 -738 80 -784 47 -40 -28 -49 -28 -78 6 -23
26 -33 71 -18 85 9 10 103 8 198 -4z m1195 -121 c-21 -22 -34 -29 -37 -20 -3
6 -10 9 -16 6 -7 -3 1 6 16 20 15 14 37 26 48 26 18 0 16 -4 -11 -32z m5190
12 c0 -5 -9 -10 -20 -10 -11 0 -20 5 -20 10 0 6 9 10 20 10 11 0 20 -4 20 -10z
m-2210 -125 c0 -28 -4 -35 -20 -35 -15 0 -20 7 -20 28 0 32 7 42 27 42 8 0 13
-12 13 -35z m53 0 c-2 -25 -1 -27 6 -10 9 20 10 20 10 -1 1 -27 -5 -32 -34
-26 -19 3 -25 11 -25 31 0 32 8 43 30 39 10 -2 14 -13 13 -33z m-5765 -579 c8
-15 11 -30 8 -33 -7 -8 -45 38 -46 55 0 22 24 8 38 -22z m-342 -40 c16 -24 18
-40 4 -31 -16 10 -41 76 -32 89 4 7 8 1 10 -14 2 -13 10 -33 18 -44z m384 40
c0 -7 7 -19 15 -26 16 -13 20 -30 7 -30 -8 0 -42 52 -42 64 0 3 5 6 10 6 6 0
10 -6 10 -14z m-70 -40 c0 -5 -7 -3 -15 4 -8 7 -12 17 -9 22 7 10 24 -9 24
-26z m138 -4 c6 -18 -15 -14 -22 4 -4 10 -1 14 6 12 6 -2 14 -10 16 -16z
m-528 -22 c5 0 14 -9 20 -20 14 -26 9 -25 -24 5 -17 16 -24 30 -19 38 5 9 8 7
11 -5 2 -10 7 -18 12 -18z m365 10 c3 -5 1 -10 -4 -10 -6 0 -11 5 -11 10 0 6
2 10 4 10 3 0 8 -4 11 -10z m85 -11 c0 -6 -4 -7 -10 -4 -5 3 -10 11 -10 16 0
6 5 7 10 4 6 -3 10 -11 10 -16z m328 -74 c6 -14 10 -25 8 -25 -2 0 -11 11 -20
25 -9 14 -13 25 -8 25 5 0 14 -11 20 -25z m-758 -4 c0 -6 -4 -13 -10 -16 -5
-3 -10 1 -10 9 0 9 5 16 10 16 6 0 10 -4 10 -9z m-39 -72 c-5 -13 -10 -19 -10
-12 -1 15 10 45 15 40 3 -2 0 -15 -5 -28z m102 11 c3 -11 1 -23 -5 -26 -11 -7
-14 -5 -22 24 -5 16 -3 22 7 22 8 0 17 -9 20 -20z m-53 -10 c0 -5 -4 -10 -10
-10 -5 0 -10 5 -10 10 0 6 5 10 10 10 6 0 10 -4 10 -10z m-312 -413 c2 -11 -3
-17 -16 -17 -26 0 -34 11 -20 27 14 17 32 12 36 -10z m55 -133 c-7 -18 -33
-18 -33 -1 0 19 10 27 25 20 8 -2 11 -11 8 -19z m1817 -262 c0 -4 -16 -6 -35
-4 -19 2 -35 6 -35 8 0 2 16 4 35 4 19 0 35 -4 35 -8z m146 -12 c-1 -10 4 -19
9 -19 6 1 9 5 8 10 -2 5 27 9 65 9 50 0 63 3 52 11 -12 8 -10 9 10 5 14 -3 35
-6 48 -6 23 0 22 -1 -9 -32 -46 -47 -145 -124 -282 -220 -65 -46 -128 -91
-140 -102 -12 -10 -43 -32 -68 -47 -26 -16 -49 -39 -52 -50 -4 -17 -10 -19
-29 -14 -13 4 -24 12 -26 16 -2 5 -32 9 -67 9 -41 0 -64 4 -67 13 -12 32 -8
145 6 178 13 30 24 39 65 53 27 9 61 16 74 16 14 0 27 7 31 15 3 8 15 15 26
15 12 0 38 13 58 30 20 16 53 36 72 44 19 8 47 26 62 40 27 25 78 36 78 16 0
-5 10 -10 23 -10 18 0 19 2 7 10 -12 8 -10 10 8 10 13 0 20 4 17 10 -3 6 0 10
8 10 7 0 13 -9 13 -20z m-1766 -42 c0 -5 -11 -8 -25 -8 -23 0 -34 18 -19 33 7
7 44 -14 44 -25z m43 -9 c-6 -20 7 -35 32 -39 18 -2 44 -64 33 -78 -6 -7 -8
-16 -4 -19 4 -4 11 -1 17 7 7 12 11 12 17 2 5 -7 15 -12 22 -10 9 2 14 -9 15
-36 l2 -39 -16 33 c-22 46 -39 48 -56 8 -8 -18 -14 -26 -15 -18 0 13 -2 13
-11 0 -9 -13 -10 -12 -5 3 6 18 -10 55 -29 70 -6 4 -5 10 3 16 11 6 9 15 -7
45 -23 40 -27 66 -10 66 5 0 7 5 3 12 -4 6 -3 8 4 5 5 -4 8 -17 5 -28z m2257
-195 c0 -2 -10 -12 -22 -24 -38 -35 -80 -22 -53 17 10 14 22 19 44 15 17 -2
31 -6 31 -8z m1147 -123 c45 -22 76 -60 109 -132 12 -25 36 -56 54 -69 64 -46
189 -184 190 -210 1 -14 12 -43 25 -65 37 -60 47 -86 50 -125 1 -19 14 -61 29
-93 35 -74 28 -83 -48 -67 -77 16 -111 48 -164 155 -24 49 -56 113 -71 140
-14 28 -36 74 -48 102 -16 38 -26 51 -37 47 -23 -9 -25 -26 -10 -84 13 -52 19
-106 8 -70 -14 42 -38 90 -45 90 -15 0 -17 -16 -7 -84 11 -82 14 -88 89 -186
77 -101 172 -190 241 -229 62 -35 98 -72 98 -103 0 -24 -26 -34 -45 -18 -21
18 -19 28 8 32 20 3 18 6 -18 29 -36 23 -104 51 -130 54 -18 2 -65 28 -65 37
0 4 -6 8 -12 8 -7 0 -23 16 -36 35 -12 19 -38 41 -58 50 -19 8 -54 30 -76 49
-23 20 -61 43 -85 52 -24 9 -42 19 -39 21 2 2 -9 18 -25 36 -16 17 -36 46 -44
63 -18 38 -72 87 -87 78 -6 -4 -14 0 -19 7 -6 11 -11 11 -20 2 -14 -14 3 -56
45 -112 14 -19 26 -41 26 -48 0 -8 18 -33 41 -56 22 -23 55 -62 71 -87 17 -25
58 -76 91 -113 33 -37 57 -70 55 -73 -3 -2 -26 -1 -51 2 -39 6 -55 15 -96 58
-63 65 -77 76 -96 76 -8 0 -32 18 -53 40 -20 22 -67 70 -104 107 -38 37 -68
75 -68 85 0 18 48 91 84 129 13 13 48 83 50 99 3 17 44 91 67 120 27 33 28 40
23 101 -5 45 -3 68 5 73 6 4 11 15 11 26 0 11 15 25 40 38 45 22 76 19 147
-17z m-1713 -129 c3 -61 1 -102 -5 -102 -5 0 -8 3 -8 8 1 4 1 24 0 45 -1 26
-6 37 -16 37 -23 0 -21 89 2 106 10 7 19 11 20 10 2 -1 5 -48 7 -104z m-394
39 c0 -17 -17 -21 -66 -14 -40 5 -44 8 -24 13 43 11 90 11 90 1z m1275 -24
c-13 -21 -13 -25 10 -49 13 -14 30 -28 37 -31 7 -2 10 -7 7 -10 -3 -4 -37 0
-75 8 -86 18 -84 18 -84 0 0 -9 20 -24 48 -36 93 -39 114 -53 98 -65 -11 -7
-12 -14 -5 -21 7 -7 3 -9 -14 -6 -17 3 -29 -1 -40 -17 l-15 -21 -123 30 c-127
31 -250 53 -256 47 -2 -2 9 -7 24 -11 34 -10 34 -10 53 -18 8 -3 49 -18 90
-32 75 -25 99 -39 88 -51 -4 -3 -46 -12 -95 -19 -48 -7 -95 -16 -103 -19 -37
-13 -81 -19 -165 -22 -49 -1 -110 -3 -135 -4 -25 -1 -99 3 -165 8 -127 11
-188 10 -245 -2 l-35 -8 25 18 c14 10 37 30 53 46 15 15 27 25 27 21 0 -4 7 2
16 13 8 10 12 12 8 4 -4 -8 -13 -23 -21 -32 -13 -14 -12 -18 9 -29 13 -7 27
-12 31 -11 5 1 25 4 45 6 43 5 97 24 70 25 -10 1 -27 9 -37 19 -11 9 -26 22
-34 29 -8 6 -14 27 -13 50 l1 38 40 -3 c40 -3 317 48 560 103 33 8 114 24 180
35 66 12 127 26 135 31 22 12 22 11 5 -14z m1303 -12 c-6 -14 -15 -25 -20 -25
-9 0 -4 14 15 38 15 19 18 14 5 -13z m1000 -39 c6 -13 25 -41 44 -62 l33 -38
-38 28 c-21 16 -42 36 -47 45 -6 11 -9 12 -10 3 0 -7 -4 -11 -9 -8 -10 6 -2
56 9 56 4 0 12 -11 18 -24z m-1053 -62 c-17 -40 -24 -48 -19 -26 6 35 34 96
40 89 2 -2 -7 -30 -21 -63z m4729 2 c-10 -8 -21 -12 -24 -10 -5 6 21 24 34 24
6 0 1 -6 -10 -14z m371 -21 c44 -11 46 -13 18 -14 -17 0 -34 -5 -37 -10 -10
-16 -55 -19 -60 -4 -18 45 -5 50 79 28z m-95 1 c0 -3 -4 -8 -10 -11 -5 -3 -10
-1 -10 4 0 6 5 11 10 11 6 0 10 -2 10 -4z m-320 -12 c0 -10 -33 -33 -48 -34
-10 0 -10 4 0 20 12 18 48 29 48 14z m310 -31 c0 -20 -24 -11 -28 10 -2 12 1
15 12 11 9 -3 16 -13 16 -21z m182 -5 c-9 -9 -15 -9 -24 0 -9 9 -7 12 12 12
19 0 21 -3 12 -12z m-564 -21 c2 -9 -1 -17 -7 -17 -6 0 -11 7 -11 16 0 11 -15
4 -52 -25 -53 -43 -75 -48 -40 -10 50 53 103 71 110 36z m-1408 0 c0 -8 -9
-22 -20 -32 -11 -10 -20 -31 -20 -47 0 -27 -1 -28 -16 -13 -11 10 -26 14 -43
11 -30 -7 -368 18 -377 27 -3 3 84 3 193 0 l200 -6 33 36 c35 39 50 46 50 24z
m-1680 -77 c0 -5 -11 -10 -24 -10 -14 0 -28 5 -31 10 -4 6 7 10 24 10 17 0 31
-4 31 -10z m1304 -5 c104 -8 191 -17 194 -20 15 -15 -450 10 -478 26 -22 12
68 11 284 -6z m-1197 -41 c-3 -3 -12 -4 -19 -1 -8 3 -5 6 6 6 11 1 17 -2 13
-5z m-1457 -38 c0 -9 -61 -48 -67 -43 -3 3 10 15 28 26 36 22 39 23 39 17z
m-2333 -46 c68 -22 196 -97 187 -111 -8 -14 -48 -10 -73 7 -14 10 -26 13 -30
7 -3 -6 -17 -10 -31 -9 -23 1 -25 -3 -26 -39 0 -34 4 -43 30 -59 17 -10 45
-23 61 -28 17 -5 39 -13 50 -18 11 -5 43 -17 70 -27 50 -18 50 -18 17 -21 -18
-2 -47 4 -65 13 -17 9 -68 28 -112 41 -44 14 -98 31 -120 39 -22 8 -76 21
-119 30 -70 15 -81 15 -94 2 -13 -14 -9 -18 37 -41 47 -24 66 -46 40 -46 -6 0
-8 -8 -5 -18 8 -23 -41 -69 -67 -64 -10 2 -26 -7 -36 -20 -18 -21 -18 -25 -4
-40 9 -10 29 -18 45 -18 15 0 28 -4 28 -9 0 -4 -21 -4 -47 2 -27 6 -76 10
-110 9 -68 -2 -76 4 -79 53 -1 17 -4 83 -8 148 -3 65 -8 121 -10 126 -3 4 -2
12 2 18 6 9 159 86 189 94 37 11 224 -4 280 -21z m4128 -90 c-3 -5 -10 -10
-16 -10 -5 0 -9 5 -9 10 0 6 7 10 16 10 8 0 12 -4 9 -10z m-2817 -96 c-3 -32
-25 -44 -34 -19 -8 21 16 69 29 56 5 -5 7 -21 5 -37z m-983 -134 c3 -6 -1 -7
-9 -4 -18 7 -21 14 -7 14 6 0 13 -4 16 -10z m1175 -62 c0 -9 3 -18 8 -20 14
-6 91 -122 86 -130 -8 -13 -18 -10 -54 20 -70 57 -79 67 -69 83 15 24 10 29
-17 19 -14 -6 -30 -10 -35 -10 -15 0 -10 26 7 41 14 12 14 14 -2 26 -10 7 -12
13 -6 13 7 0 11 3 11 8 -4 21 4 20 36 -5 19 -15 35 -35 35 -45z m-1085 32 c3
-5 -1 -10 -9 -10 -8 0 -18 5 -21 10 -3 6 1 10 9 10 8 0 18 -4 21 -10z m-585
-90 c0 -5 -4 -10 -10 -10 -5 0 -10 5 -10 10 0 6 5 10 10 10 6 0 10 -4 10 -10z
m-195 -103 c17 -4 17 -5 -3 -6 -28 -1 -62 15 -62 31 0 6 9 4 23 -5 13 -8 32
-17 42 -20z m109 -27 c5 -5 -8 -5 -30 1 -57 15 -64 20 -19 13 22 -3 44 -10 49
-14z m309 -77 c59 -20 105 -38 103 -41 -8 -7 -296 73 -296 83 0 10 102 -13
193 -42z m2991 18 c3 -5 -1 -12 -10 -15 -25 -10 -34 -7 -34 9 0 16 35 21 44 6z
m-68 -66 c-26 -19 -42 -19 -26 0 7 8 20 15 29 15 13 -1 13 -3 -3 -15z"/>
<path d="M3880 6350 c36 -4 74 -4 85 1 12 5 -13 7 -65 7 l-85 -1 65 -7z"/>
<path d="M4010 6356 c0 -9 30 -14 35 -6 4 6 -3 10 -14 10 -12 0 -21 -2 -21 -4z"/>
<path d="M4073 6353 c9 -2 25 -2 35 0 9 3 1 5 -18 5 -19 0 -27 -2 -17 -5z"/>
<path d="M4273 6353 c15 -2 37 -2 50 0 12 2 0 4 -28 4 -27 0 -38 -2 -22 -4z"/>
<path d="M3963 5752 c-6 -4 93 -6 220 -4 127 1 233 4 235 7 8 8 -442 5 -455
-3z"/>
<path d="M4465 5754 c70 -8 235 -8 235 -1 0 4 -60 6 -132 5 -73 0 -119 -3
-103 -4z"/>
<path d="M6180 5366 c0 -8 36 -40 80 -71 44 -31 82 -60 85 -65 4 -6 12 -10 20
-10 8 0 -9 21 -38 48 -28 26 -58 55 -65 65 -12 15 -63 47 -77 47 -3 0 -5 -6
-5 -14z"/>
<path d="M6547 5021 c-40 -39 -45 -51 -23 -51 8 0 17 -11 20 -24 8 -34 35 -58
56 -51 10 3 21 1 25 -5 4 -6 -4 -10 -19 -10 -16 0 -26 -6 -26 -14 0 -29 23
-29 47 -1 24 27 24 27 30 6 6 -24 23 -29 23 -6 0 31 29 14 36 -21 4 -23 9 -31
14 -23 5 7 7 21 5 31 -4 20 6 23 22 7 33 -33 45 45 16 105 -16 34 -17 35 -75
32 -43 -2 -58 1 -58 11 0 7 -4 13 -8 13 -5 0 -17 8 -28 19 -20 18 -21 17 -57
-18z m166 -81 c-4 -16 -33 -30 -33 -16 0 2 -3 11 -6 20 -5 12 0 16 19 16 20 0
24 -4 20 -20z"/>
<path d="M6412 4980 c-8 -17 -24 -33 -38 -36 -27 -7 -32 -29 -8 -42 8 -5 21
-19 27 -33 18 -34 45 -36 57 -3 6 14 7 36 4 48 -7 21 -12 47 -13 79 -1 26 -15
20 -29 -13z"/>
<path d="M6475 4870 c4 -6 11 -8 16 -5 14 9 11 15 -7 15 -8 0 -12 -5 -9 -10z"/>
<path d="M6680 4821 c0 -12 6 -21 16 -21 9 0 14 7 12 17 -5 25 -28 28 -28 4z"/>
<path d="M6260 4802 c0 -26 34 -67 48 -58 8 5 6 16 -6 38 -21 38 -42 47 -42
20z"/>
<path d="M6806 4805 c-9 -24 -7 -32 4 -15 9 13 10 13 10 0 1 -11 3 -11 11 3 6
10 8 21 5 24 -3 4 -6 0 -6 -8 0 -11 -2 -12 -9 -1 -7 11 -10 10 -15 -3z"/>
<path d="M6587 4734 c-4 -4 -7 -18 -7 -31 0 -20 5 -24 23 -21 12 2 22 10 22
18 0 8 5 18 10 22 6 5 6 8 -2 8 -6 0 -18 2 -25 5 -8 3 -17 2 -21 -1z"/>
<path d="M4250 5610 l-45 -7 58 -1 c37 -1 56 2 52 8 -3 6 -9 9 -13 8 -4 0 -27
-4 -52 -8z"/>
<path d="M4358 5603 c18 -2 45 -2 60 0 15 2 0 4 -33 4 -33 0 -45 -2 -27 -4z"/>
<path d="M4458 5603 c6 -2 18 -2 25 0 6 3 1 5 -13 5 -14 0 -19 -2 -12 -5z"/>
<path d="M4513 5603 c9 -2 25 -2 35 0 9 3 1 5 -18 5 -19 0 -27 -2 -17 -5z"/>
<path d="M4608 5603 c7 -3 16 -2 19 1 4 3 -2 6 -13 5 -11 0 -14 -3 -6 -6z"/>
<path d="M4658 5603 c7 -3 16 -2 19 1 4 3 -2 6 -13 5 -11 0 -14 -3 -6 -6z"/>
<path d="M4393 5573 c64 -2 170 -2 235 0 64 1 11 3 -118 3 -129 0 -182 -2
-117 -3z"/>
<path d="M4398 5533 c6 -2 18 -2 25 0 6 3 1 5 -13 5 -14 0 -19 -2 -12 -5z"/>
<path d="M4548 5489 c-26 -28 -22 -39 13 -39 27 0 30 3 27 27 -4 33 -18 37
-40 12z"/>
<path d="M2173 1849 c11 -7 23 -7 35 0 14 9 11 10 -18 10 -29 0 -32 -1 -17
-10z"/>
<path d="M3455 850 c3 -5 13 -10 21 -10 8 0 12 5 9 10 -3 6 -13 10 -21 10 -8
0 -12 -4 -9 -10z"/>
<path d="M2435 1230 c28 -12 47 -12 40 0 -3 6 -18 10 -33 9 -24 0 -25 -1 -7
-9z"/>
<path d="M2440 6936 c0 -2 7 -7 16 -10 8 -3 12 -2 9 4 -6 10 -25 14 -25 6z"/>
<path d="M2508 6523 c6 -2 18 -2 25 0 6 3 1 5 -13 5 -14 0 -19 -2 -12 -5z"/>
<path d="M2813 6428 c-18 -4 -35 -13 -38 -18 -8 -12 63 -6 77 8 15 15 -3 20
-39 10z"/>
<path d="M1600 6302 c0 -5 7 -13 16 -16 10 -4 14 -1 12 6 -5 15 -28 23 -28 10z"/>
<path d="M445 5520 c-3 -5 -2 -10 4 -10 5 0 13 5 16 10 3 6 2 10 -4 10 -5 0
-13 -4 -16 -10z"/>
<path d="M10082 5170 c0 -14 2 -19 5 -12 2 6 2 18 0 25 -3 6 -5 1 -5 -13z"/>
<path d="M10236 4631 c-14 -22 -18 -99 -6 -106 10 -6 12 -1 8 18 -3 15 -2 24
3 21 4 -2 8 14 7 36 0 41 -3 47 -12 31z"/>
<path d="M10252 4500 c0 -14 2 -19 5 -12 2 6 2 18 0 25 -3 6 -5 1 -5 -13z"/>
<path d="M10231 4445 c0 -16 3 -24 6 -16 5 11 7 11 14 0 5 -8 9 -9 9 -3 0 5
-7 19 -15 30 -14 18 -14 18 -14 -11z"/>
<path d="M10162 4425 c0 -16 2 -22 5 -12 2 9 2 23 0 30 -3 6 -5 -1 -5 -18z"/>
<path d="M10248 4383 c5 -21 7 -23 10 -9 2 10 0 22 -6 28 -6 6 -7 0 -4 -19z"/>
<path d="M10180 4370 c-12 -17 -19 -37 -16 -45 3 -8 1 -17 -5 -20 -5 -4 -7
-28 -5 -53 3 -26 8 -166 11 -312 4 -145 8 -267 10 -270 2 -3 5 -39 6 -80 1
-41 7 -81 12 -87 5 -7 7 -33 5 -58 -5 -40 -3 -45 16 -46 41 -2 -48 -21 -134
-29 -78 -7 -74 -8 45 -6 93 2 140 7 165 19 l35 15 -40 1 c-28 1 -36 4 -26 10
29 19 41 101 41 280 -1 96 -3 179 -6 183 -11 17 -27 214 -26 324 0 98 -2 112
-17 109 -9 -1 -22 2 -28 8 -14 11 -18 51 -4 43 4 -3 6 6 3 19 -6 33 -16 31
-42 -5z"/>
<path d="M2775 4311 c-25 -5 -27 -8 -12 -14 29 -11 53 -8 67 8 14 17 1 18 -55
6z"/>
<path d="M10330 4168 l0 -133 28 -1 c102 -2 389 -28 399 -36 21 -17 -12 85
-50 153 -20 35 -51 79 -69 96 -36 35 -42 36 -220 48 l-88 6 0 -133z"/>
<path d="M10724 4216 c29 -46 54 -95 69 -136 3 -8 5 30 4 85 l-2 100 -52 1
-52 1 33 -51z"/>
<path d="M2346 4206 c-27 -12 -27 -13 -7 -19 17 -4 21 -13 22 -49 1 -42 1 -42
11 -13 14 43 20 95 11 94 -5 0 -21 -6 -37 -13z"/>
<path d="M250 4110 c0 -5 5 -10 11 -10 5 0 7 5 4 10 -3 6 -8 10 -11 10 -2 0
-4 -4 -4 -10z"/>
<path d="M2490 4091 c0 -43 72 -57 78 -15 2 17 -4 23 -29 28 -46 9 -49 8 -49
-13z"/>
<path d="M240 4079 c0 -5 5 -7 10 -4 6 3 10 8 10 11 0 2 -4 4 -10 4 -5 0 -10
-5 -10 -11z"/>
<path d="M310 4021 c0 -6 4 -13 10 -16 6 -3 7 1 4 9 -7 18 -14 21 -14 7z"/>
<path d="M10330 4009 c0 -5 6 -9 13 -10 6 -1 21 -2 31 -3 11 0 21 -7 24 -15 4
-11 -3 -13 -32 -8 l-36 6 0 -67 c0 -55 4 -71 20 -85 23 -20 26 -47 5 -47 -21
0 -29 -41 -29 -155 l-1 -100 148 4 147 3 2 -53 c1 -30 2 -75 2 -101 1 -26 6
-52 13 -59 7 -7 46 -14 87 -17 l76 -5 0 126 0 126 -27 4 -28 4 28 2 c21 1 27
6 27 25 0 27 -16 36 -66 36 -46 0 -124 22 -124 35 0 6 7 21 16 33 l15 22 -78
1 c-68 1 -75 2 -52 12 14 7 33 18 42 25 9 8 36 20 59 27 44 13 45 15 33 72
l-7 31 41 -5 c26 -4 46 -1 56 7 12 10 15 10 15 -4 0 -23 17 -20 25 4 12 36 -3
60 -38 60 -52 0 -107 12 -107 23 0 10 90 4 123 -8 11 -5 17 -2 17 8 0 11 -18
16 -77 21 -43 4 -109 11 -148 16 -105 14 -215 18 -215 9z m263 -48 c9 -10 -6
-11 -68 -5 -107 9 -126 28 -22 22 43 -3 83 -10 90 -17z m-63 -311 c0 -5 -2
-10 -4 -10 -3 0 -8 5 -11 10 -3 6 -1 10 4 10 6 0 11 -4 11 -10z m60 5 c0 -17
-32 -65 -40 -60 -14 9 -12 22 7 45 17 19 33 26 33 15z m10 -78 c0 -5 -4 -5
-10 -2 -5 3 -10 14 -10 23 0 15 2 15 10 2 5 -8 10 -19 10 -23z"/>
<path d="M317 3984 c-4 -4 -7 -14 -7 -23 0 -11 3 -12 11 -4 6 6 10 16 7 23 -2
6 -7 8 -11 4z"/>
<path d="M350 3961 c0 -5 5 -13 10 -16 6 -3 10 -2 10 4 0 5 -4 13 -10 16 -5 3
-10 2 -10 -4z"/>
<path d="M1615 3760 c3 -5 14 -10 23 -10 15 0 15 2 2 10 -20 13 -33 13 -25 0z"/>
<path d="M10638 3753 c12 -2 30 -2 40 0 9 3 -1 5 -23 4 -22 0 -30 -2 -17 -4z"/>
<path d="M10712 3674 c10 -10 20 -15 24 -12 3 4 -5 12 -18 18 -22 12 -22 12
-6 -6z"/>
<path d="M9855 3520 c-3 -5 1 -10 10 -10 9 0 13 5 10 10 -3 6 -8 10 -10 10 -2
0 -7 -4 -10 -10z"/>
<path d="M9845 3380 c11 -5 31 -9 45 -9 20 -1 22 1 10 9 -8 5 -28 9 -45 9 -26
0 -27 -2 -10 -9z"/>
<path d="M9060 3230 c8 -5 30 -10 49 -10 45 0 37 6 -19 14 -31 4 -40 3 -30 -4z"/>
<path d="M590 3210 c0 -5 5 -10 11 -10 5 0 7 5 4 10 -3 6 -8 10 -11 10 -2 0
-4 -4 -4 -10z"/>
<path d="M820 3091 c0 -5 7 -16 15 -25 8 -8 15 -19 15 -25 0 -6 5 -11 10 -11
16 0 12 10 -15 42 -14 16 -25 25 -25 19z"/>
<path d="M780 3081 c0 -5 5 -13 10 -16 6 -3 10 -2 10 4 0 5 -4 13 -10 16 -5 3
-10 2 -10 -4z"/>
<path d="M505 3060 c3 -5 8 -10 11 -10 2 0 4 5 4 10 0 6 -5 10 -11 10 -5 0 -7
-4 -4 -10z"/>
<path d="M151 3041 c-9 -6 -11 -16 -7 -27 7 -18 8 -18 17 -1 14 23 8 39 -10
28z"/>
<path d="M505 3040 c-11 -5 -15 -9 -10 -10 28 -6 41 -4 47 5 4 5 10 6 14 2 4
-3 1 -13 -5 -21 -7 -8 -8 -17 -3 -20 11 -6 24 33 16 46 -6 10 -33 9 -59 -2z"/>
<path d="M603 3043 c-18 -7 -16 -28 4 -44 15 -13 16 -11 11 13 -3 15 0 29 6
32 6 2 7 4 1 4 -5 0 -16 -2 -22 -5z"/>
<path d="M800 3040 c0 -5 5 -10 11 -10 5 0 7 5 4 10 -3 6 -8 10 -11 10 -2 0
-4 -4 -4 -10z"/>
<path d="M640 3020 c0 -5 5 -10 11 -10 5 0 7 5 4 10 -3 6 -8 10 -11 10 -2 0
-4 -4 -4 -10z"/>
<path d="M516 3011 c-4 -7 -5 -15 -2 -18 9 -9 19 4 14 18 -4 11 -6 11 -12 0z"/>
<path d="M841 2985 c12 -19 25 -35 30 -35 10 0 0 21 -24 53 -24 30 -27 19 -6
-18z"/>
<path d="M435 2991 c-6 -11 9 -23 19 -14 9 9 7 23 -3 23 -6 0 -12 -4 -16 -9z"/>
<path d="M630 2971 c0 -5 5 -13 10 -16 6 -3 10 -2 10 4 0 5 -4 13 -10 16 -5 3
-10 2 -10 -4z"/>
<path d="M500 2960 c8 -5 22 -9 30 -9 10 0 8 3 -5 9 -27 12 -43 12 -25 0z"/>
<path d="M9968 2913 c7 -3 16 -2 19 1 4 3 -2 6 -13 5 -11 0 -14 -3 -6 -6z"/>
<path d="M10098 2903 c7 -3 16 -2 19 1 4 3 -2 6 -13 5 -11 0 -14 -3 -6 -6z"/>
<path d="M10623 2843 c9 -2 25 -2 35 0 9 3 1 5 -18 5 -19 0 -27 -2 -17 -5z"/>
<path d="M9558 1193 c7 -3 16 -2 19 1 4 3 -2 6 -13 5 -11 0 -14 -3 -6 -6z"/>
<path d="M6160 176 c0 -8 5 -18 10 -21 6 -3 10 3 10 14 0 12 -4 21 -10 21 -5
0 -10 -6 -10 -14z"/>
</g>
</svg>
